<svg width="226" height="61" viewBox="0 0 226 61" fill="none" xmlns="http://www.w3.org/2000/svg">
<path d="M5.34937 21.6547L25 10.3094L44.6506 21.6547V44.3453L25 55.6906L5.34937 44.3453V21.6547Z" stroke="white" stroke-width="4"/>
<path d="M26.14 41.84L30.04 31.85C30.42 30.87 30.72 30.07 30.94 29.45C31.18 28.83 31.36 28.32 31.48 27.92C31.6 27.52 31.68 27.2 31.72 26.96C31.76 26.72 31.78 26.49 31.78 26.27C31.78 25.79 31.6 25.48 31.24 25.34C30.88 25.18 30.16 25.1 29.08 25.1V23.9H37.6V25.1C35.94 25.1 34.79 25.91 34.15 27.53L26.26 47.3H24.04L16.87 29.78C16.47 28.84 16.11 28.07 15.79 27.47C15.47 26.87 15.13 26.4 14.77 26.06C14.41 25.7 14.01 25.46 13.57 25.34C13.15 25.2 12.65 25.13 12.07 25.13V23.9H23.41V25.13C22.89 25.15 22.45 25.18 22.09 25.22C21.75 25.26 21.48 25.33 21.28 25.43C21.08 25.51 20.94 25.63 20.86 25.79C20.78 25.93 20.74 26.11 20.74 26.33C20.74 26.61 20.79 26.94 20.89 27.32C20.99 27.7 21.14 28.16 21.34 28.7L26.14 41.84Z" fill="white"/>
<path d="M75.0994 8.45454H69.0291L79.7827 39H86.6136L97.3821 8.45454H91.2969L83.3622 32.4972H83.049L75.0994 8.45454ZM106.627 39H112.026V16.0909H106.627V39ZM109.341 12.8395C111.056 12.8395 112.458 11.527 112.458 9.91619C112.458 8.29048 111.056 6.97798 109.341 6.97798C107.611 6.97798 106.209 8.29048 106.209 9.91619C106.209 11.527 107.611 12.8395 109.341 12.8395ZM141.144 22.1463C140.399 18.2685 137.296 15.7926 131.927 15.7926C126.409 15.7926 122.65 18.5071 122.665 22.7429C122.65 26.0838 124.708 28.2912 129.108 29.201L133.016 30.0213C135.119 30.4837 136.103 31.3338 136.103 32.6314C136.103 34.1974 134.403 35.3757 131.838 35.3757C129.362 35.3757 127.751 34.3018 127.289 32.2436L122.024 32.7507C122.695 36.9567 126.23 39.4474 131.853 39.4474C137.58 39.4474 141.622 36.4794 141.637 32.1392C141.622 28.8729 139.519 26.8743 135.193 25.9347L131.286 25.0994C128.959 24.5774 128.034 23.772 128.049 22.4446C128.034 20.8935 129.75 19.8196 132.002 19.8196C134.492 19.8196 135.805 21.1768 136.223 22.6832L141.144 22.1463ZM161.542 39.4474C168.253 39.4474 172.519 34.7195 172.519 27.6349C172.519 20.5355 168.253 15.7926 161.542 15.7926C154.83 15.7926 150.564 20.5355 150.564 27.6349C150.564 34.7195 154.83 39.4474 161.542 39.4474ZM161.571 35.1222C157.858 35.1222 156.038 31.8111 156.038 27.62C156.038 23.429 157.858 20.0732 161.571 20.0732C165.226 20.0732 167.045 23.429 167.045 27.62C167.045 31.8111 165.226 35.1222 161.571 35.1222ZM194.001 16.0909H189.482V10.6023H184.083V16.0909H180.831V20.267H184.083V33.0043C184.053 37.3146 187.185 39.4325 191.242 39.3132C192.778 39.2685 193.837 38.9702 194.419 38.7763L193.509 34.5554C193.211 34.63 192.599 34.7642 191.928 34.7642C190.571 34.7642 189.482 34.2869 189.482 32.1094V20.267H194.001V16.0909ZM210.569 39.4624C214.163 39.4624 216.311 37.777 217.295 35.853H217.474V39H222.665V23.6676C222.665 17.6122 217.728 15.7926 213.358 15.7926C208.54 15.7926 204.842 17.9403 203.648 22.1165L208.69 22.8324C209.226 21.2663 210.748 19.924 213.388 19.924C215.893 19.924 217.266 21.2067 217.266 23.4588V23.5483C217.266 25.0994 215.64 25.174 211.598 25.6065C207.153 26.0838 202.903 27.4112 202.903 32.5717C202.903 37.076 206.199 39.4624 210.569 39.4624ZM211.971 35.495C209.719 35.495 208.108 34.4659 208.108 32.4822C208.108 30.4091 209.913 29.544 212.329 29.201C213.746 29.0071 216.579 28.6491 217.28 28.0824V30.782C217.28 33.3324 215.222 35.495 211.971 35.495Z" fill="white"/>
<path d="M77.8608 49.2727V58H79.3778V51.9915H79.4588L81.8707 57.9744H83.0043L85.4162 52.0043H85.4972V58H87.0142V49.2727H85.0795L82.4886 55.5966H82.3864L79.7955 49.2727H77.8608ZM92.5253 58.1278C94.0509 58.1278 95.0992 57.3821 95.3719 56.2443L93.9316 56.0824C93.7228 56.6364 93.2114 56.9261 92.5466 56.9261C91.5495 56.9261 90.889 56.2699 90.8762 55.1491H95.4359V54.6761C95.4359 52.3793 94.0552 51.3693 92.4444 51.3693C90.5694 51.3693 89.3464 52.7457 89.3464 54.7656C89.3464 56.8196 90.5523 58.1278 92.5253 58.1278ZM90.8805 54.1094C90.9273 53.2741 91.5452 52.571 92.4657 52.571C93.352 52.571 93.9486 53.2188 93.9572 54.1094H90.8805ZM97.1554 52.7202H99.2733V58H100.765V52.7202H102.883V51.4545H97.1554V52.7202ZM106.685 58.1321C107.712 58.1321 108.326 57.6506 108.607 57.1009H108.658V58H110.141V53.6193C110.141 51.8892 108.73 51.3693 107.482 51.3693C106.105 51.3693 105.049 51.983 104.708 53.1761L106.148 53.3807C106.302 52.9332 106.736 52.5497 107.49 52.5497C108.206 52.5497 108.598 52.9162 108.598 53.5597V53.5852C108.598 54.0284 108.134 54.0497 106.979 54.1733C105.709 54.3097 104.495 54.6889 104.495 56.1634C104.495 57.4503 105.436 58.1321 106.685 58.1321ZM107.086 56.9986C106.442 56.9986 105.982 56.7045 105.982 56.1378C105.982 55.5455 106.498 55.2983 107.188 55.2003C107.593 55.1449 108.402 55.0426 108.603 54.8807V55.652C108.603 56.3807 108.015 56.9986 107.086 56.9986ZM112.2 58H112.678C114.084 58 114.719 57.0114 114.821 54.8295L114.923 52.7202H116.803V58H118.294V51.4545H113.521L113.406 54.3523C113.334 56.1889 113.095 56.7301 112.418 56.7301H112.192L112.2 58ZM120.356 58H120.833C122.239 58 122.874 57.0114 122.976 54.8295L123.079 52.7202H124.958V58H126.45V51.4545H121.677L121.562 54.3523C121.489 56.1889 121.251 56.7301 120.573 56.7301H120.347L120.356 58ZM131.818 58.1278C133.735 58.1278 134.954 56.777 134.954 54.7528C134.954 52.7244 133.735 51.3693 131.818 51.3693C129.9 51.3693 128.682 52.7244 128.682 54.7528C128.682 56.777 129.9 58.1278 131.818 58.1278ZM131.826 56.892C130.765 56.892 130.245 55.946 130.245 54.7486C130.245 53.5511 130.765 52.5923 131.826 52.5923C132.87 52.5923 133.39 53.5511 133.39 54.7486C133.39 55.946 132.87 56.892 131.826 56.892ZM137.224 58H138.766V55.5327H139.52L141.314 58H143.181L140.731 54.6676L143.155 51.4545H141.297L139.329 54.0966H138.766V51.4545H137.224V58ZM147.601 58.1278C149.519 58.1278 150.738 56.777 150.738 54.7528C150.738 52.7244 149.519 51.3693 147.601 51.3693C145.684 51.3693 144.465 52.7244 144.465 54.7528C144.465 56.777 145.684 58.1278 147.601 58.1278ZM147.61 56.892C146.549 56.892 146.029 55.946 146.029 54.7486C146.029 53.5511 146.549 52.5923 147.61 52.5923C148.654 52.5923 149.174 53.5511 149.174 54.7486C149.174 55.946 148.654 56.892 147.61 56.892ZM154.494 51.4545H153.007V58H154.494V55.3537H157.03V58H158.513V51.4545H157.03V54.0881H154.494V51.4545ZM163.888 58.1278C165.533 58.1278 166.582 57.152 166.692 55.7628H165.218C165.086 56.4659 164.579 56.8707 163.901 56.8707C162.938 56.8707 162.316 56.0653 162.316 54.7273C162.316 53.4062 162.951 52.6136 163.901 52.6136C164.643 52.6136 165.099 53.0909 165.218 53.7216H166.692C166.586 52.3026 165.478 51.3693 163.88 51.3693C161.962 51.3693 160.752 52.7543 160.752 54.7528C160.752 56.7344 161.932 58.1278 163.888 58.1278ZM168.456 52.7202H170.573V58H172.065V52.7202H174.183V51.4545H168.456V52.7202ZM176.371 60.4545H177.914V56.9688H177.978C178.221 57.446 178.728 58.1151 179.853 58.1151C181.395 58.1151 182.55 56.892 182.55 54.7358C182.55 52.554 181.361 51.3693 179.848 51.3693C178.694 51.3693 178.212 52.0639 177.978 52.5369H177.888V51.4545H176.371V60.4545ZM177.884 54.7273C177.884 53.4574 178.429 52.6349 179.422 52.6349C180.449 52.6349 180.978 53.5085 180.978 54.7273C180.978 55.9545 180.441 56.8494 179.422 56.8494C178.438 56.8494 177.884 55.9972 177.884 54.7273ZM185.567 60.4545C186.769 60.4545 187.464 59.8366 187.834 58.7926L190.464 51.4631L188.815 51.4545L187.302 56.3977H187.234L185.725 51.4545H184.089L186.462 58.1364L186.33 58.4901C186.045 59.2358 185.593 59.2869 184.92 59.0909L184.562 60.2926C184.77 60.3778 185.145 60.4545 185.567 60.4545ZM192.494 58H194.037V55.5327H194.791L196.585 58H198.452L196.001 54.6676L198.426 51.4545H196.568L194.599 54.0966H194.037V51.4545H192.494V58ZM205.813 51.4545H204.339V56.7344H201.774V51.4545H200.286V58H205.306V60.1051H206.815V56.8494H205.813V51.4545ZM210.527 55.9119V51.4545H209.039V58H210.629L213.241 53.5384V58H214.733V51.4545H213.147L210.527 55.9119ZM218.764 55.9119V51.4545H217.277V58H218.866L221.478 53.5384V58H222.97V51.4545H221.385L218.764 55.9119Z" fill="white"/>
<path d="M60 9V57" stroke="white" stroke-width="2" stroke-linecap="round"/>
</svg>
