<svg xmlns="http://www.w3.org/2000/svg" fill="none" viewBox="0 0 189 61">
  <path stroke="#fff" stroke-width="4" d="M3.6 18L25 2.5 46.4 18l-8.2 25.2H11.8L3.6 18z"/>
  <path fill="#fff" d="M26.1 33.8l4-10a92.3 92.3 0 001.7-5.5c0-.5-.2-.8-.6-1-.3-.1-1-.2-2.1-.2v-1.2h8.5v1.2c-1.7 0-2.8.8-3.5 2.4l-7.8 19.8H24L17 21.8a30 30 0 00-1.1-2.3c-.3-.6-.7-1.1-1-1.4-.4-.4-.8-.6-1.2-.8l-1.5-.2V16h11.3v1.2l-1.3.1-.8.2c-.2.1-.4.2-.4.4l-.2.5a15.3 15.3 0 00.6 2.4l4.8 13.1zM59 18.5h-5.1l9 25.5h5.6l9-25.5h-5l-6.7 20h-.3l-6.6-20zM85.4 44H90V25h-4.5v19zm2.3-21.8c1.4 0 2.6-1 2.6-2.4s-1.2-2.5-2.6-2.5c-1.4 0-2.6 1.1-2.6 2.5 0 1.3 1.2 2.4 2.6 2.4zm26.9 7.8c-.7-3.3-3.3-5.3-7.7-5.3-4.6 0-7.8 2.2-7.7 5.8 0 2.7 1.7 4.6 5.3 5.3l3.3.7c1.7.4 2.6 1.1 2.6 2.2 0 1.3-1.5 2.3-3.6 2.3-2 0-3.4-1-3.8-2.6l-4.4.4c.6 3.5 3.5 5.6 8.2 5.6 4.8 0 8.2-2.5 8.2-6.1 0-2.7-1.8-4.4-5.4-5.2l-3.3-.7c-1.9-.4-2.7-1-2.7-2.2 0-1.3 1.5-2.2 3.3-2.2 2.1 0 3.2 1.1 3.6 2.4l4-.4zM132 44.4c5.6 0 9.1-4 9.1-9.9s-3.5-9.8-9.1-9.8-9.1 4-9.1 9.8c0 6 3.5 9.9 9.1 9.9zm0-3.6c-3 0-4.6-2.8-4.6-6.3s1.5-6.3 4.6-6.3c3 0 4.6 2.8 4.6 6.3s-1.5 6.3-4.6 6.3zm27.4-15.9h-3.8v-4.6h-4.5V25h-2.7v3.5h2.7V39c0 3.6 2.6 5.4 6 5.3a9 9 0 002.6-.5l-.7-3.5-1.3.2c-1.2 0-2-.4-2-2.2v-10h3.7V25zm14.2 19.5c3 0 4.7-1.4 5.6-3h.1V44h4.3V31.2c0-5-4-6.5-7.7-6.5-4 0-7.1 1.8-8.1 5.2l4.2.6c.4-1.3 1.7-2.4 4-2.4 2 0 3.1 1 3.1 3 0 1.3-1.3 1.4-4.7 1.7-3.7.4-7.2 1.5-7.2 5.8 0 3.8 2.7 5.8 6.4 5.8zm1.1-3.3c-1.9 0-3.2-.9-3.2-2.5 0-1.8 1.5-2.5 3.5-2.8 1.2-.1 3.6-.4 4.2-.9v2.3c0 2-1.8 3.9-4.5 3.9zM14 58.1c1.8 0 3.1-1 3.1-2.5 0-1.1-.6-1.9-1.9-2v-.1c1-.2 1.6-1 1.6-2 0-1.3-1.1-2.3-2.9-2.3-1.7 0-3 1-3 2.4h1.5c0-.7.7-1.2 1.5-1.2s1.4.5 1.4 1.3c0 .7-.7 1.2-1.6 1.2H13v1.3h.7c1.1 0 1.8.5 1.8 1.3s-.7 1.3-1.6 1.3c-.9 0-1.6-.5-1.6-1.2h-1.6c0 1.5 1.4 2.5 3.2 2.5zm6.7 0c1 0 1.7-.4 2-1v.9h1.5v-4.4c0-1.7-1.4-2.2-2.7-2.2-1.3 0-2.4.6-2.7 1.8l1.4.2c.1-.5.6-.9 1.3-.9.8 0 1.1.4 1.1 1 0 .5-.4.5-1.6.7-1.2.1-2.5.5-2.5 2 0 1.3 1 2 2.2 2zm.4-1.1c-.6 0-1-.3-1-.9 0-.6.4-.8 1.1-.9l1.5-.3v.8c0 .7-.6 1.3-1.6 1.3zm4.9 1h3.2c1.5 0 2.4-.7 2.4-1.8 0-.9-.7-1.5-1.8-1.6.9-.2 1.4-.6 1.4-1.4 0-1-1-1.7-2.5-1.7H26V58zm1.4-1.2v-1.6h1.8c.5 0 .9.3.9.8s-.4.8-1 .8h-1.7zm0-2.6v-1.5h1.3c.7 0 1 .3 1 .7 0 .5-.3.8-1 .8h-1.3zm8.5 4c2 0 3.2-1.4 3.2-3.4s-1.3-3.4-3.2-3.4c-1.9 0-3.1 1.3-3.1 3.4 0 2 1.2 3.3 3.1 3.3zm0-1.3c-1 0-1.5-1-1.5-2.2 0-1.1.5-2.1 1.5-2.1s1.6 1 1.6 2.1c0 1.2-.5 2.2-1.6 2.2zm4.1 3h1.6V58h4.2v1.9h1.5v-3.2h-1v-5.2h-4.7l-.2 2.2c-.1 1.5-.3 2.6-.8 3H40V60zm2.1-3.2c.5-.6.6-1.6.7-3l.1-1h2v4H42zm13.6-.5l-1.9-4.7H52V58h1.5v-4.4l1.8 4.4h1l1.8-4.5V58h1.5v-6.5h-1.9l-1.9 4.7zm8.5 2c1.5 0 2.6-.8 2.9-2l-1.5-.1c-.2.5-.7.8-1.4.8-1 0-1.6-.6-1.6-1.8H67v-.4c0-2.3-1.4-3.3-3-3.3-1.8 0-3 1.3-3 3.4 0 2 1.1 3.3 3.1 3.3zm-1.6-4c0-1 .6-1.6 1.6-1.6.8 0 1.4.6 1.4 1.5h-3zm5.5-1.5h2.1V58h1.5v-5.3H74v-1.2H68v1.2zm8.8 5.4c1 0 1.7-.4 2-1v.9h1.5v-4.4c0-1.7-1.4-2.2-2.7-2.2-1.3 0-2.4.6-2.7 1.8l1.4.2c.2-.5.6-.9 1.3-.9.8 0 1.1.4 1.1 1 0 .5-.4.5-1.6.7-1.2.1-2.5.5-2.5 2 0 1.3 1 2 2.2 2zm.4-1.1c-.6 0-1-.3-1-.9 0-.6.4-.8 1.1-.9l1.5-.3v.8c0 .7-.6 1.3-1.6 1.3zm4.4 1h.5c1.4 0 2-1 2.1-3.2l.2-2h1.8V58h1.5v-6.5h-4.7l-.2 2.9c0 1.8-.3 2.3-1 2.3h-.2V58zm7.5 0h.4c1.4 0 2-1 2.2-3.2v-2h2V58h1.5v-6.5h-4.8l-.1 2.9c-.1 1.8-.3 2.3-1 2.3h-.2V58zm10.7.1c2 0 3.1-1.3 3.1-3.3 0-2-1.2-3.4-3-3.4-2 0-3.2 1.3-3.2 3.4 0 2 1.2 3.3 3.1 3.3zm0-1.2c-1 0-1.6-1-1.6-2.2 0-1.1.6-2.1 1.6-2.1s1.6 1 1.6 2.1c0 1.2-.5 2.2-1.6 2.2zm4.7 1.1h1.5v-2.5h.8l1.8 2.5h1.8l-2.4-3.3 2.4-3.2h-1.8l-2 2.6h-.6v-2.6h-1.5V58zm9.7.1c1.9 0 3-1.3 3-3.3 0-2-1.1-3.4-3-3.4-2 0-3.2 1.3-3.2 3.4 0 2 1.2 3.3 3.2 3.3zm0-1.2c-1.1 0-1.6-1-1.6-2.2 0-1.1.5-2.1 1.6-2.1 1 0 1.5 1 1.5 2.1 0 1.2-.5 2.2-1.5 2.2zm6.1-5.4H119V58h1.5v-2.6h2.6V58h1.4v-6.5H123V54h-2.6v-2.6zm8.7 6.6c1.6 0 2.7-1 2.8-2.3h-1.5c-.1.7-.6 1-1.3 1-1 0-1.6-.7-1.6-2 0-1.4.7-2.2 1.6-2.2.8 0 1.2.5 1.3 1.1h1.5c-.1-1.4-1.2-2.3-2.8-2.3-2 0-3.1 1.4-3.1 3.4S127 58 129 58zm3.8-5.4h2.2V58h1.5v-5.3h2v-1.2H133v1.2zm7.2 7.8h1.6V57a2 2 0 002 1.1c1.5 0 2.6-1.2 2.6-3.4 0-2.1-1.2-3.3-2.7-3.3a2 2 0 00-1.9 1.1v-1H140v9zm1.6-5.8c0-1.2.5-2 1.5-2s1.5.8 1.5 2c0 1.3-.5 2.1-1.5 2.1s-1.5-.8-1.5-2zm7 5.8c1.1 0 1.8-.7 2.2-1.7l2.6-7.3H152l-1.6 4.9-1.5-5H147l2.4 6.7-.1.4c-.3.7-.8.8-1.4.6l-.4 1.2 1 .2zm6.1-2.5h1.6v-2.5h.7L159 58h1.9l-2.5-3.3 2.5-3.2h-1.9l-2 2.6h-.5v-2.6h-1.6V58zm12.6-6.5H166v5.2h-2.5v-5.2h-1.5V58h5v2.1h1.5v-3.3h-1v-5.3zm4 4.4v-4.4H170V58h1.6l2.6-4.5V58h1.5v-6.5H174l-2.6 4.4zm7.5 0v-4.4h-1.5V58h1.6l2.6-4.5V58h1.5v-6.5h-1.5l-2.7 4.4zm2.2-6.7c0 .4-.2.8-.8.8-.6 0-.9-.4-.9-.8h-1.1c0 1 .8 1.7 2 1.7s2-.7 2-1.7H181z"/>
</svg>
