<svg width="300" height="76" viewBox="0 0 300 76" fill="none" xmlns="http://www.w3.org/2000/svg">
<path d="M24.4122 2.89919C24.7627 2.64454 25.2373 2.64454 25.5878 2.89919L45.8375 17.6115C46.188 17.8661 46.3346 18.3175 46.2008 18.7295L38.4661 42.5344C38.3322 42.9465 37.9482 43.2254 37.515 43.2254H12.485C12.0518 43.2254 11.6678 42.9465 11.5339 42.5344L3.79924 18.7295C3.66537 18.3175 3.81203 17.8661 4.16251 17.6115L24.4122 2.89919Z" stroke="#FFB728" stroke-width="4"/>
<path d="M26.264 33.184L29.904 23.86C30.2587 22.9453 30.5387 22.1987 30.744 21.62C30.968 21.0413 31.136 20.5653 31.248 20.192C31.36 19.8187 31.4347 19.52 31.472 19.296C31.5093 19.072 31.528 18.8573 31.528 18.652C31.528 18.204 31.36 17.9147 31.024 17.784C30.688 17.6347 30.016 17.56 29.008 17.56V16.44H36.96V17.56C35.4107 17.56 34.3373 18.316 33.74 19.828L26.376 38.28H24.304L17.612 21.928C17.2387 21.0507 16.9027 20.332 16.604 19.772C16.3053 19.212 15.988 18.7733 15.652 18.456C15.316 18.12 14.9427 17.896 14.532 17.784C14.14 17.6533 13.6733 17.588 13.132 17.588V16.44H23.716V17.588C23.2307 17.6067 22.82 17.6347 22.484 17.672C22.1667 17.7093 21.9147 17.7747 21.728 17.868C21.5413 17.9427 21.4107 18.0547 21.336 18.204C21.2613 18.3347 21.224 18.5027 21.224 18.708C21.224 18.9693 21.2707 19.2773 21.364 19.632C21.4573 19.9867 21.5973 20.416 21.784 20.92L26.264 33.184Z" fill="#FFB728"/>
<path d="M73.5824 37H84.1804C90.1761 37 93.1165 33.9446 93.1165 29.8665C93.1165 25.9034 90.304 23.5767 87.517 23.4361V23.1804C90.0739 22.5795 92.0938 20.7898 92.0938 17.6065C92.0938 13.7074 89.2812 10.8182 83.6051 10.8182H73.5824V37ZM78.3253 33.0369V25.3665H83.554C86.4815 25.3665 88.2969 27.1562 88.2969 29.4957C88.2969 31.5795 86.8651 33.0369 83.4261 33.0369H78.3253ZM78.3253 21.9531V14.7301H83.1193C85.9062 14.7301 87.3509 16.2003 87.3509 18.2202C87.3509 20.5213 85.4844 21.9531 83.017 21.9531H78.3253ZM113.569 20.9304V10.8182H108.814V37H118.619C124.64 37 128.233 33.6634 128.233 28.8438C128.233 24.0369 124.64 20.9304 118.619 20.9304H113.569ZM135.251 10.8182H130.508V37H135.251V10.8182ZM113.569 24.7912H118.619C121.79 24.7912 123.541 26.581 123.541 28.7926C123.541 31.0938 121.79 33.1136 118.619 33.1136H113.569V24.7912ZM174.334 19.652C173.528 13.8352 169.054 10.4602 163.25 10.4602C156.41 10.4602 151.258 15.446 151.258 23.9091C151.258 32.3594 156.346 37.358 163.25 37.358C169.476 37.358 173.605 33.331 174.334 28.3324L169.552 28.3068C168.952 31.375 166.446 33.1009 163.314 33.1009C159.069 33.1009 156.027 29.9176 156.027 23.9091C156.027 18.0028 159.044 14.7173 163.327 14.7173C166.51 14.7173 169.003 16.5199 169.552 19.652H174.334ZM213.592 23.9091C213.592 15.446 208.427 10.4602 201.562 10.4602C194.684 10.4602 189.532 15.446 189.532 23.9091C189.532 32.3594 194.684 37.358 201.562 37.358C208.427 37.358 213.592 32.3722 213.592 23.9091ZM208.823 23.9091C208.823 29.8665 205.832 33.1009 201.562 33.1009C197.305 33.1009 194.301 29.8665 194.301 23.9091C194.301 17.9517 197.305 14.7173 201.562 14.7173C205.832 14.7173 208.823 17.9517 208.823 23.9091ZM227.32 14.794H235.413V37H240.117V14.794H248.21V10.8182H227.32V14.794ZM263.955 37L266.115 30.544H275.959L278.132 37H283.195L273.965 10.8182H268.11L258.892 37H263.955ZM267.394 26.7344L270.935 16.1875H271.139L274.681 26.7344H267.394Z" fill="#FFB728"/>
<path d="M8.86151 72.179C11.6612 72.179 13.7003 70.5746 13.6939 68.3629C13.7003 66.7266 12.6776 65.5504 10.843 65.2884V65.1861C12.2621 64.8793 13.2145 63.8246 13.2081 62.3544C13.2145 60.3601 11.5142 58.7301 8.89986 58.7301C6.35582 58.7301 4.38707 60.245 4.33594 62.4375H6.6179C6.65625 61.3381 7.67898 60.6541 8.88707 60.6541C10.108 60.6541 10.9197 61.3956 10.9134 62.495C10.9197 63.6392 9.97372 64.3999 8.61861 64.3999H7.46165V66.228H8.61861C10.2741 66.228 11.2585 67.0589 11.2521 68.2415C11.2585 69.3984 10.255 70.1911 8.85511 70.1911C7.53835 70.1911 6.52202 69.5071 6.46449 68.4396H4.06108C4.125 70.6513 6.10014 72.179 8.86151 72.179ZM19.9988 72.1982C21.5393 72.1982 22.4598 71.4759 22.8816 70.6513H22.9583V72H25.1828V65.429C25.1828 62.8338 23.067 62.054 21.1941 62.054C19.1295 62.054 17.5443 62.9744 17.0329 64.7642L19.1934 65.071C19.4235 64.3999 20.0755 63.8246 21.2069 63.8246C22.2808 63.8246 22.8688 64.3743 22.8688 65.3395V65.3778C22.8688 66.0426 22.1721 66.0746 20.4399 66.2599C18.535 66.4645 16.7133 67.0334 16.7133 69.245C16.7133 71.1754 18.1259 72.1982 19.9988 72.1982ZM20.5997 70.4979C19.6345 70.4979 18.9441 70.0568 18.9441 69.2067C18.9441 68.3182 19.7176 67.9474 20.7531 67.8004C21.3603 67.7173 22.5748 67.5639 22.8752 67.321V68.478C22.8752 69.571 21.9931 70.4979 20.5997 70.4979ZM28.7695 72H33.5251C35.8263 72 37.143 70.9581 37.143 69.3345C37.143 67.9602 36.0756 67.0014 34.5351 66.8672C35.8455 66.6243 36.6636 65.9276 36.6636 64.8217C36.6636 63.1662 35.2126 62.1818 32.8923 62.1818H28.7695V72ZM30.9364 70.1783V67.7429H33.5251C34.3753 67.7429 34.893 68.2351 34.893 69.0469C34.893 69.75 34.3753 70.1783 33.5251 70.1783H30.9364ZM30.9364 66.2472V64.0355H32.8923C33.8575 64.0355 34.4456 64.4446 34.4456 65.1158C34.4456 65.8189 33.8767 66.2472 32.9371 66.2472H30.9364ZM44.5953 72.1918C47.4718 72.1918 49.2999 70.1655 49.2999 67.1293C49.2999 64.0866 47.4718 62.054 44.5953 62.054C41.7189 62.054 39.8908 64.0866 39.8908 67.1293C39.8908 70.1655 41.7189 72.1918 44.5953 72.1918ZM44.6081 70.3381C43.0165 70.3381 42.2367 68.919 42.2367 67.1229C42.2367 65.3267 43.0165 63.8885 44.6081 63.8885C46.1742 63.8885 46.954 65.3267 46.954 67.1229C46.954 68.919 46.1742 70.3381 44.6081 70.3381ZM51.6545 74.8509H53.9301V72H60.3541V74.8509H62.5913V70.0952H61.07V62.1818H53.9748L53.6936 65.6207C53.5082 67.8196 53.2653 69.4496 52.4344 70.0952H51.6545V74.8509ZM54.8122 70.0952C55.4322 69.1811 55.6623 67.6982 55.8285 65.6207L55.9819 64.0483H58.8584V70.0952H54.8122ZM76.9542 69.3089L74.1161 62.1818H71.3036V72H73.5344V65.3842L76.1488 72H77.766L80.4698 65.3139V72H82.6814V62.1818H79.8689L76.9542 69.3089ZM90.6211 72.1918C92.9095 72.1918 94.4819 71.0732 94.891 69.3665L92.7305 69.1236C92.4173 69.9545 91.6503 70.3892 90.6531 70.3892C89.1574 70.3892 88.1666 69.4048 88.1474 67.7237H94.9869V67.0142C94.9869 63.5689 92.9159 62.054 90.4997 62.054C87.6872 62.054 85.8527 64.1186 85.8527 67.1484C85.8527 70.2294 87.6616 72.1918 90.6211 72.1918ZM88.1538 66.1641C88.2241 64.9112 89.151 63.8565 90.5316 63.8565C91.8612 63.8565 92.7561 64.8281 92.7689 66.1641H88.1538ZM97.3863 64.0803H100.563V72H102.8V64.0803H105.977V62.1818H97.3863V64.0803ZM111.501 72.1982C113.041 72.1982 113.962 71.4759 114.383 70.6513H114.46V72H116.685V65.429C116.685 62.8338 114.569 62.054 112.696 62.054C110.631 62.054 109.046 62.9744 108.535 64.7642L110.695 65.071C110.925 64.3999 111.577 63.8246 112.709 63.8246C113.783 63.8246 114.371 64.3743 114.371 65.3395V65.3778C114.371 66.0426 113.674 66.0746 111.942 66.2599C110.037 66.4645 108.215 67.0334 108.215 69.245C108.215 71.1754 109.628 72.1982 111.501 72.1982ZM112.102 70.4979C111.136 70.4979 110.446 70.0568 110.446 69.2067C110.446 68.3182 111.219 67.9474 112.255 67.8004C112.862 67.7173 114.077 67.5639 114.377 67.321V68.478C114.377 69.571 113.495 70.4979 112.102 70.4979ZM119.594 72H120.31C122.419 72 123.371 70.517 123.525 67.2443L123.678 64.0803H126.497V72H128.734V62.1818H121.575L121.403 66.5284C121.294 69.2834 120.936 70.0952 119.92 70.0952H119.581L119.594 72ZM131.647 72H132.363C134.472 72 135.424 70.517 135.578 67.2443L135.731 64.0803H138.55V72H140.787V62.1818H133.628L133.456 66.5284C133.347 69.2834 132.989 70.0952 131.973 70.0952H131.634L131.647 72ZM148.66 72.1918C151.536 72.1918 153.364 70.1655 153.364 67.1293C153.364 64.0866 151.536 62.054 148.66 62.054C145.784 62.054 143.955 64.0866 143.955 67.1293C143.955 70.1655 145.784 72.1918 148.66 72.1918ZM148.673 70.3381C147.081 70.3381 146.301 68.919 146.301 67.1229C146.301 65.3267 147.081 63.8885 148.673 63.8885C150.239 63.8885 151.019 65.3267 151.019 67.1229C151.019 68.919 150.239 70.3381 148.673 70.3381ZM156.588 72H158.902V68.299H160.034L162.725 72H165.525L161.849 67.0014L165.486 62.1818H162.699L159.746 66.1449H158.902V62.1818H156.588V72ZM171.975 72.1918C174.851 72.1918 176.679 70.1655 176.679 67.1293C176.679 64.0866 174.851 62.054 171.975 62.054C169.098 62.054 167.27 64.0866 167.27 67.1293C167.27 70.1655 169.098 72.1918 171.975 72.1918ZM171.988 70.3381C170.396 70.3381 169.616 68.919 169.616 67.1229C169.616 65.3267 170.396 63.8885 171.988 63.8885C173.554 63.8885 174.334 65.3267 174.334 67.1229C174.334 68.919 173.554 70.3381 171.988 70.3381ZM182.134 62.1818H179.903V72H182.134V68.0305H185.937V72H188.162V62.1818H185.937V66.1321H182.134V62.1818ZM196.046 72.1918C198.513 72.1918 200.085 70.728 200.252 68.6442H198.04C197.842 69.6989 197.081 70.3061 196.065 70.3061C194.62 70.3061 193.687 69.098 193.687 67.0909C193.687 65.1094 194.639 63.9205 196.065 63.9205C197.177 63.9205 197.861 64.6364 198.04 65.5824H200.252C200.092 63.4538 198.43 62.054 196.033 62.054C193.156 62.054 191.341 64.1314 191.341 67.1293C191.341 70.1016 193.112 72.1918 196.046 72.1918ZM202.717 64.0803H205.893V72H208.131V64.0803H211.307V62.1818H202.717V64.0803ZM214.41 75.6818H216.724V70.4531H216.82C217.184 71.169 217.945 72.1726 219.632 72.1726C221.946 72.1726 223.678 70.3381 223.678 67.1037C223.678 63.831 221.895 62.054 219.626 62.054C217.894 62.054 217.171 63.0959 216.82 63.8054H216.685V62.1818H214.41V75.6818ZM216.679 67.0909C216.679 65.1861 217.497 63.9524 218.987 63.9524C220.527 63.9524 221.32 65.2628 221.32 67.0909C221.32 68.9318 220.514 70.2741 218.987 70.2741C217.51 70.2741 216.679 68.9957 216.679 67.0909ZM228.024 75.6818C229.827 75.6818 230.869 74.755 231.425 73.1889L235.369 62.1946L232.895 62.1818L230.626 69.5966H230.523L228.261 62.1818H225.806L229.366 72.2045L229.168 72.7351C228.74 73.8537 228.063 73.9304 227.053 73.6364L226.516 75.4389C226.829 75.5668 227.391 75.6818 228.024 75.6818ZM238.235 72H240.549V68.299H241.68L244.371 72H247.171L243.495 67.0014L247.132 62.1818H244.345L241.392 66.1449H240.549V62.1818H238.235V72ZM258.033 62.1818H255.822V70.1016H251.974V62.1818H249.743V72H257.273V75.1577H259.535V70.2741H258.033V62.1818ZM264.923 68.8679V62.1818H262.692V72H265.076L268.995 65.3075V72H271.232V62.1818H268.854L264.923 68.8679ZM277.099 68.8679V62.1818H274.868V72H277.252L281.171 65.3075V72H283.408V62.1818H281.03L277.099 68.8679ZM280.397 58.8068C280.391 59.4332 280.033 59.9893 279.132 59.9893C278.218 59.9893 277.872 59.4205 277.872 58.8068H276.153C276.147 60.3026 277.304 61.3125 279.132 61.3125C280.973 61.3125 282.13 60.3026 282.13 58.8068H280.397Z" fill="#FFB728"/>
</svg>
