<?xml version="1.0" standalone="no"?>
<!DOCTYPE svg PUBLIC "-//W3C//DTD SVG 20010904//EN"
 "http://www.w3.org/TR/2001/REC-SVG-20010904/DTD/svg10.dtd">
<svg version="1.0" xmlns="http://www.w3.org/2000/svg"
 width="768.000000pt" height="768.000000pt" viewBox="0 0 768.000000 768.000000"
 preserveAspectRatio="xMidYMid meet">
<metadata>
Created by potrace 1.14, written by Peter Selinger 2001-2017
</metadata>
<g transform="translate(0.000000,768.000000) scale(0.100000,-0.100000)"
fill="#000000" stroke="none">
<path d="M3787 7404 c-2 -2 -17 -6 -33 -7 -40 -5 -102 -26 -144 -50 -44 -24
-134 -89 -138 -99 -2 -5 -8 -8 -14 -8 -6 0 -31 -17 -57 -39 -25 -21 -57 -44
-69 -50 -13 -7 -35 -22 -49 -34 -13 -12 -44 -35 -68 -52 -48 -34 -210 -150
-330 -238 -44 -32 -89 -65 -100 -73 -32 -22 -209 -152 -220 -161 -5 -4 -27
-19 -47 -33 -21 -14 -38 -28 -38 -32 0 -5 -7 -8 -15 -8 -8 0 -15 -4 -15 -10 0
-5 -6 -10 -14 -10 -8 0 -16 -3 -18 -8 -1 -4 -32 -28 -68 -54 -36 -26 -69 -51
-75 -55 -5 -5 -82 -60 -170 -123 -88 -63 -162 -117 -165 -121 -3 -3 -28 -21
-56 -41 -28 -19 -61 -44 -74 -56 -13 -12 -30 -22 -37 -22 -7 0 -13 -4 -13 -8
0 -4 -12 -15 -27 -24 -16 -9 -37 -24 -48 -33 -11 -8 -76 -56 -145 -105 -69
-50 -136 -99 -148 -110 -13 -11 -27 -20 -32 -20 -5 0 -10 -3 -12 -7 -1 -5 -25
-24 -53 -43 -27 -19 -54 -38 -60 -43 -5 -4 -66 -48 -135 -98 -69 -49 -136 -98
-148 -109 -13 -11 -28 -20 -33 -20 -5 0 -9 -4 -9 -10 0 -5 -4 -10 -10 -10 -5
0 -18 -7 -27 -15 -10 -8 -128 -94 -263 -192 -135 -97 -246 -181 -248 -185 -2
-4 -8 -8 -13 -8 -11 0 -54 -35 -97 -80 -114 -118 -156 -287 -112 -450 11 -41
22 -82 24 -90 2 -8 21 -64 41 -125 20 -60 38 -114 39 -120 2 -5 5 -17 9 -25 3
-8 14 -44 26 -80 11 -36 38 -119 60 -185 49 -151 155 -478 157 -485 0 -3 3
-12 6 -20 10 -28 69 -205 71 -215 4 -14 97 -307 104 -325 4 -8 7 -17 8 -20 2
-8 31 -100 245 -755 34 -104 63 -194 64 -200 2 -5 6 -17 9 -25 3 -8 49 -150
102 -315 53 -165 111 -340 127 -390 17 -49 32 -97 34 -105 2 -8 15 -49 29 -90
14 -41 25 -78 25 -81 0 -4 5 -20 12 -36 6 -15 12 -33 13 -39 10 -45 73 -196
96 -230 57 -83 180 -173 262 -189 9 -2 23 -7 30 -12 6 -4 944 -8 2082 -8 1692
-1 2081 1 2130 12 130 29 255 122 313 231 34 66 47 102 177 507 53 165 103
318 112 340 8 22 16 47 18 55 3 16 65 210 95 295 9 28 26 79 37 115 12 36 42
130 68 210 26 80 49 150 50 155 1 6 5 17 8 25 10 26 68 204 72 220 2 8 22 71
45 140 23 69 43 130 44 135 2 6 6 18 10 27 4 9 9 22 10 30 1 7 46 146 99 308
123 380 141 434 142 440 1 3 4 12 8 20 7 18 51 153 52 160 0 3 11 37 24 75 13
39 24 77 26 85 2 8 14 47 28 85 23 66 76 228 82 250 1 6 4 17 8 25 6 17 14 42
15 50 1 3 13 39 27 80 37 105 37 106 40 199 3 93 -9 150 -49 231 -29 59 -100
141 -156 180 -19 13 -39 28 -45 33 -5 4 -50 37 -100 73 -49 35 -97 70 -105 77
-8 6 -32 23 -53 37 -20 14 -37 28 -37 33 0 4 -5 7 -10 7 -12 0 -123 80 -128
93 -2 4 -9 7 -16 7 -7 0 -23 11 -36 25 -13 14 -29 25 -36 25 -7 0 -14 4 -16 8
-3 8 -230 175 -266 197 -9 6 -19 12 -22 16 -3 3 -45 34 -95 69 -49 36 -92 67
-95 70 -3 3 -52 39 -110 80 -58 41 -112 80 -120 87 -8 7 -103 76 -210 153
-107 78 -206 150 -220 160 -14 10 -88 64 -165 119 -77 56 -144 104 -150 109
-5 4 -26 19 -45 32 -19 14 -39 31 -43 38 -4 6 -12 12 -17 12 -5 0 -40 23 -77
50 -87 65 -345 252 -422 307 -14 10 -43 32 -65 48 -23 17 -63 46 -91 64 -27
19 -55 39 -60 45 -6 6 -18 16 -26 21 -9 6 -52 36 -95 67 -304 222 -322 233
-414 258 -44 13 -165 22 -173 14z m65 -681 c2 -5 26 -24 53 -42 28 -19 52 -37
55 -40 3 -4 13 -10 22 -16 9 -5 162 -116 338 -245 177 -129 329 -239 338 -245
9 -5 19 -12 22 -16 3 -3 28 -21 55 -40 28 -18 52 -36 55 -39 13 -13 79 -60 85
-60 3 0 16 -9 28 -20 12 -12 63 -50 112 -85 50 -35 95 -68 100 -73 6 -4 32
-23 60 -42 27 -19 56 -40 63 -47 7 -7 26 -20 42 -30 17 -9 30 -21 30 -25 0 -4
7 -8 15 -8 8 0 15 -4 15 -8 0 -4 15 -16 33 -27 17 -10 34 -21 37 -24 4 -6 72
-56 159 -118 14 -10 46 -34 72 -53 27 -19 82 -60 125 -90 42 -30 82 -61 89
-67 8 -7 16 -13 19 -13 3 0 14 -7 23 -15 10 -8 79 -58 153 -112 74 -53 137
-101 138 -105 2 -4 8 -8 13 -8 7 0 65 -41 119 -83 8 -7 31 -23 50 -37 19 -13
37 -27 40 -30 3 -3 12 -9 21 -15 29 -17 178 -126 191 -139 7 -6 36 -27 64 -46
168 -115 204 -145 199 -165 -3 -11 -7 -27 -9 -35 -2 -8 -14 -42 -26 -75 -11
-33 -23 -67 -25 -75 -2 -8 -33 -107 -70 -220 -65 -200 -96 -295 -101 -315 -2
-5 -24 -73 -49 -150 -26 -77 -49 -147 -51 -155 -3 -8 -5 -15 -4 -15 1 0 -4
-13 -10 -30 -7 -16 -13 -37 -15 -45 -2 -8 -22 -69 -45 -135 -22 -66 -42 -127
-44 -135 -5 -18 -105 -328 -113 -350 -3 -8 -7 -19 -8 -25 -2 -5 -31 -95 -65
-200 -34 -104 -78 -239 -97 -300 -19 -60 -38 -117 -41 -125 -3 -8 -6 -18 -7
-22 -2 -5 -4 -10 -5 -13 -1 -3 -4 -9 -5 -15 -1 -5 -4 -12 -5 -15 -1 -3 -3 -8
-4 -12 -2 -9 -48 -150 -127 -392 -28 -85 -52 -161 -54 -170 -2 -9 -13 -40 -24
-69 -11 -29 -19 -55 -20 -58 0 -5 -49 -160 -58 -184 -4 -8 -7 -17 -8 -20 0 -3
-11 -38 -24 -77 -12 -40 -23 -76 -24 -80 0 -5 -7 -19 -14 -33 l-13 -25 -1885
0 c-1037 -1 -1885 2 -1886 5 -2 18 -13 53 -65 210 -32 96 -58 177 -59 180 -1
7 -36 113 -42 130 -3 8 -7 20 -8 25 -3 11 -88 270 -142 435 -19 58 -36 110
-37 115 -3 11 -130 404 -183 565 -19 58 -36 110 -37 115 -1 6 -7 24 -13 40 -7
17 -57 172 -113 345 -56 173 -110 341 -121 372 -11 31 -22 65 -24 75 -3 10
-16 52 -30 93 -15 41 -28 83 -30 93 -2 9 -7 22 -10 27 -3 5 -8 18 -10 27 -2
10 -36 117 -75 238 -40 121 -91 280 -115 353 -24 74 -42 139 -39 145 3 7 23
23 45 37 22 14 48 32 57 40 9 9 40 31 67 50 28 18 52 37 55 40 3 3 28 22 55
40 28 19 80 57 117 85 37 27 96 70 130 95 35 24 123 88 195 142 73 54 137 98
142 98 5 0 11 4 13 8 2 5 37 33 78 62 41 29 76 57 78 62 2 4 8 8 13 8 6 0 15
5 22 11 7 5 77 57 157 115 80 58 152 110 160 117 8 7 62 46 120 87 58 41 107
78 108 82 2 5 10 8 17 8 7 0 15 3 17 8 2 4 37 32 78 62 41 30 77 58 78 62 2 5
8 8 13 8 5 0 31 17 58 38 26 20 58 44 71 52 12 8 62 44 110 80 49 36 98 72
110 80 53 37 156 112 170 123 9 7 38 28 65 47 28 18 52 36 55 40 3 3 77 57
165 120 88 63 162 117 165 120 3 3 37 28 75 55 39 27 72 53 73 57 2 4 9 8 15
8 7 1 30 16 52 35 41 36 51 40 57 28z"/>
<path d="M1942 4798 l3 -93 50 -2 c46 -2 81 -6 130 -17 11 -3 20 -5 20 -6 0
-1 8 -3 18 -5 76 -14 188 -101 263 -205 48 -66 141 -249 214 -420 29 -69 63
-149 76 -178 13 -29 24 -57 24 -62 0 -6 4 -18 9 -28 5 -9 17 -35 26 -57 9 -22
20 -49 25 -60 5 -11 34 -82 65 -158 30 -75 61 -149 67 -165 6 -15 12 -32 13
-38 2 -5 12 -30 24 -54 11 -24 21 -50 21 -57 0 -7 5 -13 12 -13 6 0 8 -3 5 -7
-4 -3 -2 -12 4 -20 6 -7 9 -13 5 -13 -4 0 0 -13 9 -30 8 -16 38 -87 66 -157
46 -115 60 -151 90 -218 5 -11 29 -72 55 -135 25 -63 52 -128 59 -145 16 -37
25 -64 23 -68 -1 -1 5 -15 14 -32 21 -39 29 -59 83 -193 72 -179 95 -236 128
-312 9 -19 34 -82 57 -140 40 -102 53 -131 80 -195 7 -16 14 -35 16 -41 1 -6
9 -27 18 -45 l16 -34 165 0 164 0 15 35 c34 80 193 482 194 490 1 3 15 38 32
78 42 99 53 125 56 137 1 6 34 89 73 185 39 96 71 181 71 188 0 6 4 12 8 12 5
0 9 6 9 13 1 10 132 345 162 412 14 31 76 189 76 195 0 3 3 10 7 15 3 6 18 42
33 80 14 39 30 79 35 90 5 11 23 56 40 100 18 44 35 89 40 100 4 11 18 45 30
75 11 30 25 64 30 75 5 11 46 112 90 225 45 113 87 219 94 235 8 17 17 41 21
55 4 14 16 45 27 70 11 25 25 59 32 75 33 75 61 131 73 143 7 7 13 17 13 22 0
4 26 34 58 66 59 59 169 121 227 127 17 2 35 6 40 8 6 3 30 7 55 8 25 2 47 4
50 6 3 2 5 41 4 87 l0 83 -637 3 -636 2 3 -35 c1 -19 -1 -35 -5 -35 -4 0 -4
-12 -1 -27 4 -16 7 -40 6 -55 -1 -27 1 -28 55 -29 31 -1 82 -2 113 -3 32 0 58
-3 58 -6 0 -3 12 -7 26 -8 49 -4 112 -39 129 -72 32 -61 17 -213 -35 -360 -5
-14 -23 -65 -40 -115 -17 -49 -38 -104 -46 -122 -8 -17 -14 -35 -14 -39 0 -8
-114 -308 -138 -364 -9 -19 -16 -37 -17 -40 -4 -17 -19 -60 -31 -87 -8 -18
-20 -48 -28 -65 -14 -33 -158 -405 -243 -628 -24 -63 -48 -124 -53 -135 -5
-11 -41 -101 -79 -200 -38 -99 -76 -196 -84 -215 l-15 -35 -10 25 c-5 14 -22
59 -37 100 -14 41 -33 91 -40 110 -31 79 -117 316 -120 331 -2 9 -8 25 -13 35
-5 11 -15 35 -21 54 -27 80 -72 206 -80 225 -5 11 -13 31 -19 45 -6 14 -18 48
-27 75 -21 61 -81 227 -100 275 -18 46 -196 532 -199 545 -2 6 -8 22 -14 37
-6 14 -33 93 -61 175 -116 345 -83 428 179 449 108 9 144 12 150 13 5 1 6 147
1 174 0 4 -381 7 -847 7 l-845 0 3 -92z"/>
</g>
</svg>
