<svg width="300" height="69" viewBox="0 0 300 69" fill="none" xmlns="http://www.w3.org/2000/svg">
<path d="M25.5878 2.89919L45.8375 17.6115C46.188 17.8661 46.3346 18.3175 46.2008 18.7295L38.4661 42.5344C38.3322 42.9465 37.9482 43.2254 37.515 43.2254H12.485C12.0518 43.2254 11.6678 42.9465 11.5339 42.5344L3.79924 18.7295C3.66537 18.3175 3.81203 17.8661 4.16251 17.6115L24.4122 2.89919C24.7627 2.64454 25.2373 2.64454 25.5878 2.89919Z" stroke="#FFB728" stroke-width="4"/>
<path d="M26.264 33.184L29.904 23.86C30.2587 22.9453 30.5387 22.1987 30.744 21.62C30.968 21.0413 31.136 20.5653 31.248 20.192C31.36 19.8187 31.4347 19.52 31.472 19.296C31.5093 19.072 31.528 18.8573 31.528 18.652C31.528 18.204 31.36 17.9147 31.024 17.784C30.688 17.6347 30.016 17.56 29.008 17.56V16.44H36.96V17.56C35.4107 17.56 34.3373 18.316 33.74 19.828L26.376 38.28H24.304L17.612 21.928C17.2387 21.0507 16.9027 20.332 16.604 19.772C16.3053 19.212 15.988 18.7733 15.652 18.456C15.316 18.12 14.9427 17.896 14.532 17.784C14.14 17.6533 13.6733 17.588 13.132 17.588V16.44H23.716V17.588C23.2307 17.6067 22.82 17.6347 22.484 17.672C22.1667 17.7093 21.9147 17.7747 21.728 17.868C21.5413 17.9427 21.4107 18.0547 21.336 18.204C21.2613 18.3347 21.224 18.5027 21.224 18.708C21.224 18.9693 21.2707 19.2773 21.364 19.632C21.4573 19.9867 21.5973 20.416 21.784 20.92L26.264 33.184Z" fill="#FFB728"/>
<path d="M73.5824 37H84.1804C90.1761 37 93.1165 33.9446 93.1165 29.8665C93.1165 25.9034 90.304 23.5767 87.517 23.4361V23.1804C90.0739 22.5795 92.0938 20.7898 92.0938 17.6065C92.0938 13.7074 89.2812 10.8182 83.6051 10.8182H73.5824V37ZM78.3253 33.0369V25.3665H83.554C86.4815 25.3665 88.2969 27.1562 88.2969 29.4957C88.2969 31.5795 86.8651 33.0369 83.4261 33.0369H78.3253ZM78.3253 21.9531V14.7301H83.1193C85.9062 14.7301 87.3509 16.2003 87.3509 18.2202C87.3509 20.5213 85.4844 21.9531 83.017 21.9531H78.3253ZM113.569 20.9304V10.8182H108.814V37H118.619C124.64 37 128.233 33.6634 128.233 28.8438C128.233 24.0369 124.64 20.9304 118.619 20.9304H113.569ZM135.251 10.8182H130.508V37H135.251V10.8182ZM113.569 24.7912H118.619C121.79 24.7912 123.541 26.581 123.541 28.7926C123.541 31.0938 121.79 33.1136 118.619 33.1136H113.569V24.7912ZM174.334 19.652C173.528 13.8352 169.054 10.4602 163.25 10.4602C156.41 10.4602 151.258 15.446 151.258 23.9091C151.258 32.3594 156.346 37.358 163.25 37.358C169.476 37.358 173.605 33.331 174.334 28.3324L169.552 28.3068C168.952 31.375 166.446 33.1009 163.314 33.1009C159.069 33.1009 156.027 29.9176 156.027 23.9091C156.027 18.0028 159.044 14.7173 163.327 14.7173C166.51 14.7173 169.003 16.5199 169.552 19.652H174.334ZM213.592 23.9091C213.592 15.446 208.427 10.4602 201.562 10.4602C194.684 10.4602 189.532 15.446 189.532 23.9091C189.532 32.3594 194.684 37.358 201.562 37.358C208.427 37.358 213.592 32.3722 213.592 23.9091ZM208.823 23.9091C208.823 29.8665 205.832 33.1009 201.562 33.1009C197.305 33.1009 194.301 29.8665 194.301 23.9091C194.301 17.9517 197.305 14.7173 201.562 14.7173C205.832 14.7173 208.823 17.9517 208.823 23.9091ZM227.32 14.794H235.413V37H240.117V14.794H248.21V10.8182H227.32V14.794ZM263.955 37L266.115 30.544H275.959L278.132 37H283.195L273.965 10.8182H268.11L258.892 37H263.955ZM267.394 26.7344L270.935 16.1875H271.139L274.681 26.7344H267.394Z" fill="#FFB728"/>
<path d="M8.86151 65.179C11.6612 65.179 13.7003 63.5746 13.6939 61.3629C13.7003 59.7266 12.6776 58.5504 10.843 58.2884V58.1861C12.2621 57.8793 13.2145 56.8246 13.2081 55.3544C13.2145 53.3601 11.5142 51.7301 8.89986 51.7301C6.35582 51.7301 4.38707 53.245 4.33594 55.4375H6.6179C6.65625 54.3381 7.67898 53.6541 8.88707 53.6541C10.108 53.6541 10.9197 54.3956 10.9134 55.495C10.9197 56.6392 9.97372 57.3999 8.61861 57.3999H7.46165V59.228H8.61861C10.2741 59.228 11.2585 60.0589 11.2521 61.2415C11.2585 62.3984 10.255 63.1911 8.85511 63.1911C7.53835 63.1911 6.52202 62.5071 6.46449 61.4396H4.06108C4.125 63.6513 6.10014 65.179 8.86151 65.179ZM19.9988 65.1982C21.5393 65.1982 22.4598 64.4759 22.8816 63.6513H22.9583V65H25.1828V58.429C25.1828 55.8338 23.067 55.054 21.1941 55.054C19.1295 55.054 17.5443 55.9744 17.0329 57.7642L19.1934 58.071C19.4235 57.3999 20.0755 56.8246 21.2069 56.8246C22.2808 56.8246 22.8688 57.3743 22.8688 58.3395V58.3778C22.8688 59.0426 22.1721 59.0746 20.4399 59.2599C18.535 59.4645 16.7133 60.0334 16.7133 62.245C16.7133 64.1754 18.1259 65.1982 19.9988 65.1982ZM20.5997 63.4979C19.6345 63.4979 18.9441 63.0568 18.9441 62.2067C18.9441 61.3182 19.7176 60.9474 20.7531 60.8004C21.3603 60.7173 22.5748 60.5639 22.8752 60.321V61.478C22.8752 62.571 21.9931 63.4979 20.5997 63.4979ZM28.7695 65H33.5251C35.8263 65 37.143 63.9581 37.143 62.3345C37.143 60.9602 36.0756 60.0014 34.5351 59.8672C35.8455 59.6243 36.6636 58.9276 36.6636 57.8217C36.6636 56.1662 35.2126 55.1818 32.8923 55.1818H28.7695V65ZM30.9364 63.1783V60.7429H33.5251C34.3753 60.7429 34.893 61.2351 34.893 62.0469C34.893 62.75 34.3753 63.1783 33.5251 63.1783H30.9364ZM30.9364 59.2472V57.0355H32.8923C33.8575 57.0355 34.4456 57.4446 34.4456 58.1158C34.4456 58.8189 33.8767 59.2472 32.9371 59.2472H30.9364ZM44.5953 65.1918C47.4718 65.1918 49.2999 63.1655 49.2999 60.1293C49.2999 57.0866 47.4718 55.054 44.5953 55.054C41.7189 55.054 39.8908 57.0866 39.8908 60.1293C39.8908 63.1655 41.7189 65.1918 44.5953 65.1918ZM44.6081 63.3381C43.0165 63.3381 42.2367 61.919 42.2367 60.1229C42.2367 58.3267 43.0165 56.8885 44.6081 56.8885C46.1742 56.8885 46.954 58.3267 46.954 60.1229C46.954 61.919 46.1742 63.3381 44.6081 63.3381ZM51.6545 67.8509H53.9301V65H60.3541V67.8509H62.5913V63.0952H61.07V55.1818H53.9748L53.6936 58.6207C53.5082 60.8196 53.2653 62.4496 52.4344 63.0952H51.6545V67.8509ZM54.8122 63.0952C55.4322 62.1811 55.6623 60.6982 55.8285 58.6207L55.9819 57.0483H58.8584V63.0952H54.8122ZM76.9542 62.3089L74.1161 55.1818H71.3036V65H73.5344V58.3842L76.1488 65H77.766L80.4698 58.3139V65H82.6814V55.1818H79.8689L76.9542 62.3089ZM90.6211 65.1918C92.9095 65.1918 94.4819 64.0732 94.891 62.3665L92.7305 62.1236C92.4173 62.9545 91.6503 63.3892 90.6531 63.3892C89.1574 63.3892 88.1666 62.4048 88.1474 60.7237H94.9869V60.0142C94.9869 56.5689 92.9159 55.054 90.4997 55.054C87.6872 55.054 85.8527 57.1186 85.8527 60.1484C85.8527 63.2294 87.6616 65.1918 90.6211 65.1918ZM88.1538 59.1641C88.2241 57.9112 89.151 56.8565 90.5316 56.8565C91.8612 56.8565 92.7561 57.8281 92.7689 59.1641H88.1538ZM97.3863 57.0803H100.563V65H102.8V57.0803H105.977V55.1818H97.3863V57.0803ZM111.501 65.1982C113.041 65.1982 113.962 64.4759 114.383 63.6513H114.46V65H116.685V58.429C116.685 55.8338 114.569 55.054 112.696 55.054C110.631 55.054 109.046 55.9744 108.535 57.7642L110.695 58.071C110.925 57.3999 111.577 56.8246 112.709 56.8246C113.783 56.8246 114.371 57.3743 114.371 58.3395V58.3778C114.371 59.0426 113.674 59.0746 111.942 59.2599C110.037 59.4645 108.215 60.0334 108.215 62.245C108.215 64.1754 109.628 65.1982 111.501 65.1982ZM112.102 63.4979C111.136 63.4979 110.446 63.0568 110.446 62.2067C110.446 61.3182 111.219 60.9474 112.255 60.8004C112.862 60.7173 114.077 60.5639 114.377 60.321V61.478C114.377 62.571 113.495 63.4979 112.102 63.4979ZM119.594 65H120.31C122.419 65 123.371 63.517 123.525 60.2443L123.678 57.0803H126.497V65H128.734V55.1818H121.575L121.403 59.5284C121.294 62.2834 120.936 63.0952 119.92 63.0952H119.581L119.594 65ZM131.647 65H132.363C134.472 65 135.424 63.517 135.578 60.2443L135.731 57.0803H138.55V65H140.787V55.1818H133.628L133.456 59.5284C133.347 62.2834 132.989 63.0952 131.973 63.0952H131.634L131.647 65ZM148.66 65.1918C151.536 65.1918 153.364 63.1655 153.364 60.1293C153.364 57.0866 151.536 55.054 148.66 55.054C145.784 55.054 143.955 57.0866 143.955 60.1293C143.955 63.1655 145.784 65.1918 148.66 65.1918ZM148.673 63.3381C147.081 63.3381 146.301 61.919 146.301 60.1229C146.301 58.3267 147.081 56.8885 148.673 56.8885C150.239 56.8885 151.019 58.3267 151.019 60.1229C151.019 61.919 150.239 63.3381 148.673 63.3381ZM156.588 65H158.902V61.299H160.034L162.725 65H165.525L161.849 60.0014L165.486 55.1818H162.699L159.746 59.1449H158.902V55.1818H156.588V65ZM171.975 65.1918C174.851 65.1918 176.679 63.1655 176.679 60.1293C176.679 57.0866 174.851 55.054 171.975 55.054C169.098 55.054 167.27 57.0866 167.27 60.1293C167.27 63.1655 169.098 65.1918 171.975 65.1918ZM171.988 63.3381C170.396 63.3381 169.616 61.919 169.616 60.1229C169.616 58.3267 170.396 56.8885 171.988 56.8885C173.554 56.8885 174.334 58.3267 174.334 60.1229C174.334 61.919 173.554 63.3381 171.988 63.3381ZM182.134 55.1818H179.903V65H182.134V61.0305H185.937V65H188.162V55.1818H185.937V59.1321H182.134V55.1818ZM196.046 65.1918C198.513 65.1918 200.085 63.728 200.252 61.6442H198.04C197.842 62.6989 197.081 63.3061 196.065 63.3061C194.62 63.3061 193.687 62.098 193.687 60.0909C193.687 58.1094 194.639 56.9205 196.065 56.9205C197.177 56.9205 197.861 57.6364 198.04 58.5824H200.252C200.092 56.4538 198.43 55.054 196.033 55.054C193.156 55.054 191.341 57.1314 191.341 60.1293C191.341 63.1016 193.112 65.1918 196.046 65.1918ZM202.717 57.0803H205.893V65H208.131V57.0803H211.307V55.1818H202.717V57.0803ZM214.41 68.6818H216.724V63.4531H216.82C217.184 64.169 217.945 65.1726 219.632 65.1726C221.946 65.1726 223.678 63.3381 223.678 60.1037C223.678 56.831 221.895 55.054 219.626 55.054C217.894 55.054 217.171 56.0959 216.82 56.8054H216.685V55.1818H214.41V68.6818ZM216.679 60.0909C216.679 58.1861 217.497 56.9524 218.987 56.9524C220.527 56.9524 221.32 58.2628 221.32 60.0909C221.32 61.9318 220.514 63.2741 218.987 63.2741C217.51 63.2741 216.679 61.9957 216.679 60.0909ZM228.024 68.6818C229.827 68.6818 230.869 67.755 231.425 66.1889L235.369 55.1946L232.895 55.1818L230.626 62.5966H230.523L228.261 55.1818H225.806L229.366 65.2045L229.168 65.7351C228.74 66.8537 228.063 66.9304 227.053 66.6364L226.516 68.4389C226.829 68.5668 227.391 68.6818 228.024 68.6818ZM238.235 65H240.549V61.299H241.68L244.371 65H247.171L243.495 60.0014L247.132 55.1818H244.345L241.392 59.1449H240.549V55.1818H238.235V65ZM258.033 55.1818H255.822V63.1016H251.974V55.1818H249.743V65H257.273V68.1577H259.535V63.2741H258.033V55.1818ZM264.923 61.8679V55.1818H262.692V65H265.076L268.995 58.3075V65H271.232V55.1818H268.854L264.923 61.8679ZM277.099 61.8679V55.1818H274.868V65H277.252L281.171 58.3075V65H283.408V55.1818H281.03L277.099 61.8679ZM280.397 51.8068C280.391 52.4332 280.033 52.9893 279.132 52.9893C278.218 52.9893 277.872 52.4205 277.872 51.8068H276.153C276.147 53.3026 277.304 54.3125 279.132 54.3125C280.973 54.3125 282.13 53.3026 282.13 51.8068H280.397Z" fill="#FFB728"/>
</svg>
