<?xml version="1.0" standalone="no"?>
<!DOCTYPE svg PUBLIC "-//W3C//DTD SVG 20010904//EN"
 "http://www.w3.org/TR/2001/REC-SVG-20010904/DTD/svg10.dtd">
<svg version="1.0" xmlns="http://www.w3.org/2000/svg"
 width="800.000000pt" height="800.000000pt" viewBox="0 0 800.000000 800.000000"
 preserveAspectRatio="xMidYMid meet">
<metadata>
Created by potrace 1.14, written by Peter Selinger 2001-2017
</metadata>
<g transform="translate(0.000000,800.000000) scale(0.100000,-0.100000)"
fill="#000000" stroke="none">
<path d="M3925 7955 c-67 -36 -139 -77 -150 -85 -5 -4 -30 -19 -55 -32 -25
-14 -95 -54 -156 -90 -61 -36 -117 -68 -125 -71 -8 -4 -21 -11 -29 -17 -13 -8
-163 -96 -275 -160 -29 -16 -194 -112 -225 -130 -39 -22 -139 -80 -170 -98
-19 -11 -91 -52 -160 -92 -69 -40 -138 -80 -155 -88 -16 -9 -32 -18 -35 -22
-3 -4 -20 -13 -37 -21 -18 -8 -33 -17 -33 -21 0 -5 -4 -8 -10 -8 -5 0 -47 -22
-94 -50 -47 -27 -88 -50 -92 -50 -4 0 -15 -6 -23 -14 -9 -7 -36 -25 -61 -38
-25 -14 -85 -48 -133 -77 -49 -28 -93 -51 -98 -51 -5 0 -9 -4 -9 -10 0 -5 -4
-10 -10 -10 -5 0 -76 -39 -157 -87 -82 -47 -164 -95 -183 -106 -19 -10 -60
-34 -91 -53 -31 -19 -62 -34 -68 -34 -6 0 -11 -4 -11 -10 0 -5 -4 -10 -8 -10
-5 0 -118 -63 -251 -140 -133 -77 -246 -140 -252 -140 -5 0 -9 -4 -9 -10 0 -5
-6 -10 -14 -10 -7 0 -19 -7 -26 -15 -7 -8 -16 -12 -21 -9 -5 3 -9 1 -9 -4 0
-5 -18 -17 -39 -27 -50 -22 -89 -63 -104 -107 -9 -26 -12 -512 -12 -1964 0
-1833 1 -1932 18 -1970 10 -21 32 -49 50 -60 63 -41 92 -58 97 -59 4 0 103
-57 235 -135 29 -18 85 -49 135 -77 14 -8 39 -23 55 -33 17 -11 37 -23 45 -27
38 -18 135 -77 138 -85 2 -4 9 -8 17 -8 7 0 54 -25 104 -55 51 -30 96 -55 101
-55 6 0 10 -4 10 -10 0 -5 4 -10 9 -10 5 0 49 -23 98 -51 48 -29 106 -62 128
-74 62 -35 215 -125 260 -152 22 -13 48 -26 58 -30 9 -3 17 -9 17 -14 0 -5 5
-9 10 -9 6 0 68 -33 138 -74 70 -40 199 -115 287 -166 88 -51 185 -106 215
-123 30 -17 78 -46 107 -64 29 -18 54 -33 57 -33 3 0 78 -43 167 -95 89 -52
163 -95 164 -95 2 0 49 -27 104 -60 56 -33 106 -60 111 -60 6 0 10 -4 10 -10
0 -5 6 -10 13 -10 6 -1 48 -23 92 -50 44 -28 91 -55 105 -62 14 -7 57 -31 95
-54 174 -101 191 -107 262 -91 12 3 136 72 275 152 139 81 316 183 393 227 77
45 156 90 175 102 19 12 56 33 83 46 26 14 47 28 47 32 0 5 5 8 10 8 6 0 51
24 100 52 50 29 107 62 128 74 72 41 567 327 597 345 17 10 39 23 50 29 11 5
43 23 70 39 63 37 135 79 200 115 28 16 70 41 95 56 25 15 110 65 190 110 80
45 156 89 170 98 14 9 27 17 30 17 3 1 23 12 45 26 22 13 52 31 68 39 15 8 80
46 145 84 64 37 142 82 172 99 30 17 57 34 58 39 2 4 8 8 14 8 14 0 219 120
246 144 60 53 56 -101 57 2006 0 1059 -3 1943 -8 1965 -11 56 -43 85 -171 158
-309 177 -362 208 -376 217 -8 6 -30 17 -47 25 -18 9 -33 20 -33 25 0 6 -7 10
-16 10 -9 0 -28 8 -42 19 -15 10 -47 29 -72 43 -52 29 -359 206 -410 237 -19
11 -42 24 -50 28 -8 4 -43 24 -78 45 -34 21 -67 38 -72 38 -6 0 -10 5 -10 10
0 6 -5 10 -11 10 -6 0 -63 31 -127 69 -64 37 -241 140 -392 227 -151 87 -313
180 -360 207 -47 28 -103 60 -125 72 -33 19 -390 226 -658 381 -37 21 -80 46
-95 54 -15 8 -79 45 -143 82 -134 79 -179 88 -244 53z m213 -774 c110 -65 136
-80 230 -132 20 -12 42 -25 47 -29 6 -4 35 -21 65 -37 30 -16 136 -77 235
-135 99 -57 200 -116 225 -130 25 -14 85 -48 133 -77 49 -28 93 -51 98 -51 5
0 9 -4 9 -8 0 -5 16 -14 35 -22 19 -8 35 -17 35 -21 0 -4 8 -9 18 -13 22 -7
82 -42 96 -56 5 -5 18 -10 28 -10 10 0 18 -3 18 -8 0 -4 21 -19 48 -32 26 -14
49 -27 52 -30 3 -3 25 -16 50 -29 25 -13 52 -29 60 -35 15 -11 27 -18 99 -58
20 -11 63 -36 96 -55 33 -19 67 -38 75 -43 8 -5 85 -49 170 -98 85 -49 171
-98 190 -108 19 -11 37 -22 40 -25 3 -3 12 -8 20 -12 8 -3 38 -20 65 -36 28
-17 68 -40 90 -53 22 -12 47 -27 56 -33 9 -5 43 -25 75 -43 32 -18 82 -46 109
-63 28 -16 65 -37 83 -46 17 -9 33 -24 33 -32 1 -9 2 -743 3 -1633 l1 -1616
-40 -24 c-22 -13 -49 -29 -60 -35 -11 -7 -42 -25 -70 -41 -27 -16 -110 -63
-182 -105 -73 -42 -193 -111 -265 -153 -73 -42 -146 -85 -163 -95 -16 -11 -36
-22 -44 -26 -8 -3 -64 -35 -124 -70 -60 -35 -113 -63 -118 -63 -5 0 -9 -4 -9
-10 0 -5 -4 -10 -9 -10 -5 0 -70 -36 -146 -80 -76 -44 -141 -80 -146 -80 -5 0
-9 -4 -9 -10 0 -5 -5 -10 -11 -10 -6 0 -45 -20 -86 -45 -40 -25 -76 -45 -79
-45 -2 0 -21 -11 -42 -23 -20 -13 -111 -67 -202 -119 -91 -52 -210 -121 -265
-153 -55 -32 -111 -65 -125 -72 -14 -8 -43 -25 -65 -39 -22 -13 -47 -27 -55
-31 -8 -4 -31 -16 -50 -28 -19 -12 -55 -33 -80 -47 -25 -14 -120 -69 -212
-122 l-168 -96 -92 52 c-51 29 -94 56 -96 60 -2 5 -8 8 -13 8 -5 0 -67 33
-137 74 -70 41 -143 83 -162 94 -19 10 -102 59 -185 107 -82 48 -168 97 -190
110 -22 12 -111 64 -199 114 -87 50 -162 91 -166 91 -5 0 -10 4 -12 8 -3 7
-38 28 -168 100 -25 14 -57 33 -71 43 -15 10 -37 23 -50 29 -13 6 -37 19 -54
30 -16 11 -37 23 -45 27 -8 4 -59 33 -113 65 -55 32 -103 58 -108 58 -5 0 -9
4 -9 10 0 5 -3 9 -7 8 -5 -1 -19 5 -33 14 -25 16 -183 107 -270 156 -25 14
-109 63 -188 108 -79 46 -146 84 -149 84 -4 0 -14 6 -22 14 -9 7 -41 27 -71
43 -53 28 -114 64 -155 91 -11 7 -28 15 -37 18 -10 4 -18 9 -19 13 -1 3 -2
736 -3 1629 -1 1432 1 1625 14 1636 8 7 58 38 110 68 119 69 285 165 325 188
17 9 221 127 455 262 234 135 441 255 460 266 19 10 76 43 125 72 140 82 277
160 282 160 2 0 16 8 31 19 46 32 533 311 543 311 5 0 9 4 9 8 0 4 12 13 28
19 15 7 45 23 67 36 170 104 372 215 383 212 7 -3 65 -36 130 -74z"/>
<path d="M1935 5452 c-3 -3 -5 -47 -5 -99 0 -67 3 -93 13 -93 89 -4 161 -15
226 -35 81 -26 125 -51 187 -107 39 -35 138 -164 132 -171 -1 -3 5 -13 14 -24
20 -22 126 -242 187 -388 23 -55 51 -119 62 -142 10 -24 19 -47 19 -51 0 -5 6
-22 14 -38 8 -16 42 -99 76 -184 34 -85 70 -173 80 -196 10 -22 44 -103 75
-180 30 -76 60 -148 64 -159 58 -134 70 -165 64 -165 -3 0 -1 -6 5 -12 5 -7
35 -76 66 -153 32 -77 62 -149 66 -160 5 -11 26 -60 46 -110 20 -49 42 -103
49 -120 7 -16 22 -55 34 -85 12 -30 26 -64 31 -75 5 -11 50 -121 100 -245 50
-124 95 -234 100 -245 11 -24 42 -100 116 -282 30 -76 64 -157 75 -181 l19
-42 177 2 176 3 148 370 c159 398 162 406 160 418 -1 4 4 7 9 7 6 0 10 6 10
13 0 11 135 359 200 512 7 18 21 52 25 65 1 3 6 16 12 30 6 14 23 57 38 95 14
39 31 78 37 89 5 10 11 26 13 35 2 10 12 37 23 62 20 45 34 80 36 89 4 16 51
127 58 135 4 5 8 15 8 22 0 7 8 32 19 56 10 23 24 58 31 77 7 19 19 49 26 65
7 17 28 68 47 115 47 118 50 124 53 135 2 8 104 260 143 355 5 14 24 61 41
105 17 44 35 89 40 100 5 11 33 81 63 155 52 129 87 196 132 249 88 105 221
176 350 188 33 3 67 6 75 8 12 1 15 20 15 96 l0 94 -680 0 -680 0 -1 -92 c-1
-51 1 -94 5 -94 3 -1 30 -3 59 -4 330 -17 387 -59 361 -264 -8 -60 -11 -72
-29 -141 -22 -86 -220 -628 -279 -763 -11 -26 -21 -49 -21 -52 -1 -8 -112
-296 -139 -360 -5 -11 -23 -58 -41 -105 -17 -47 -36 -94 -41 -105 -5 -11 -24
-60 -43 -110 -56 -148 -146 -379 -156 -400 -12 -25 -51 -126 -55 -140 -1 -5
-7 -21 -12 -35 -6 -14 -25 -62 -43 -107 -32 -84 -50 -110 -50 -74 0 11 -7 35
-14 53 -8 18 -36 92 -61 163 -25 72 -50 139 -55 150 -5 11 -13 34 -18 50 -6
17 -29 80 -51 140 -22 61 -49 137 -61 170 -12 33 -25 69 -30 80 -4 11 -17 45
-28 75 -11 30 -33 89 -48 130 -16 41 -29 78 -30 83 -1 4 -3 9 -4 12 -1 3 -3 8
-5 13 -1 4 -5 14 -8 22 -4 8 -22 58 -41 110 -49 137 -225 622 -233 640 -29 71
-127 358 -142 415 -6 22 -13 65 -17 95 -3 30 -8 56 -9 58 -7 8 27 98 43 112
50 47 140 68 314 74 32 1 61 6 65 10 9 9 12 185 4 187 -19 4 -1802 5 -1806 1z"/>
</g>
</svg>
