<svg width="211" height="51" viewBox="0 0 211 51" fill="none" xmlns="http://www.w3.org/2000/svg">
<path d="M25.5878 3.89919L45.8375 18.6115C46.188 18.8661 46.3346 19.3175 46.2008 19.7295L38.4661 43.5344C38.3322 43.9465 37.9482 44.2254 37.515 44.2254H12.485C12.0518 44.2254 11.6678 43.9465 11.5339 43.5344L3.79924 19.7295C3.66537 19.3175 3.81203 18.8661 4.16251 18.6115L24.4122 3.89919C24.7627 3.64454 25.2373 3.64454 25.5878 3.89919Z" stroke="white" stroke-width="4"/>
<path d="M26.264 34.184L29.904 24.86C30.2587 23.9453 30.5387 23.1987 30.744 22.62C30.968 22.0413 31.136 21.5653 31.248 21.192C31.36 20.8187 31.4347 20.52 31.472 20.296C31.5093 20.072 31.528 19.8573 31.528 19.652C31.528 19.204 31.36 18.9147 31.024 18.784C30.688 18.6347 30.016 18.56 29.008 18.56V17.44H36.96V18.56C35.4107 18.56 34.3373 19.316 33.74 20.828L26.376 39.28H24.304L17.612 22.928C17.2387 22.0507 16.9027 21.332 16.604 20.772C16.3053 20.212 15.988 19.7733 15.652 19.456C15.316 19.12 14.9427 18.896 14.532 18.784C14.14 18.6533 13.6733 18.588 13.132 18.588V17.44H23.716V18.588C23.2307 18.6067 22.82 18.6347 22.484 18.672C22.1667 18.7093 21.9147 18.7747 21.728 18.868C21.5413 18.9427 21.4107 19.0547 21.336 19.204C21.2613 19.3347 21.224 19.5027 21.224 19.708C21.224 19.9693 21.2707 20.2773 21.364 20.632C21.4573 20.9867 21.5973 21.416 21.784 21.92L26.264 34.184Z" fill="white"/>
<path d="M79.0852 2.81818H73.8821L83.0994 29H88.9545L98.1847 2.81818H92.9688L86.1676 23.4261H85.8991L79.0852 2.81818ZM106.109 29H110.736V9.36364H106.109V29ZM108.435 6.5767C109.905 6.5767 111.107 5.4517 111.107 4.07102C111.107 2.67756 109.905 1.55256 108.435 1.55256C106.952 1.55256 105.751 2.67756 105.751 4.07102C105.751 5.4517 106.952 6.5767 108.435 6.5767ZM135.695 14.554C135.056 11.2301 132.397 9.10795 127.795 9.10795C123.065 9.10795 119.843 11.4347 119.856 15.0653C119.843 17.929 121.607 19.821 125.378 20.6009L128.728 21.304C130.53 21.7003 131.374 22.429 131.374 23.5412C131.374 24.8835 129.917 25.8935 127.718 25.8935C125.596 25.8935 124.215 24.973 123.819 23.2088L119.306 23.6435C119.881 27.2486 122.911 29.3835 127.731 29.3835C132.64 29.3835 136.104 26.8395 136.117 23.1193C136.104 20.3196 134.302 18.6065 130.594 17.8011L127.245 17.0852C125.251 16.6378 124.458 15.9474 124.471 14.8097C124.458 13.4801 125.928 12.5597 127.859 12.5597C129.994 12.5597 131.119 13.723 131.476 15.0142L135.695 14.554ZM153.178 29.3835C158.931 29.3835 162.588 25.331 162.588 19.2585C162.588 13.1733 158.931 9.10795 153.178 9.10795C147.426 9.10795 143.769 13.1733 143.769 19.2585C143.769 25.331 147.426 29.3835 153.178 29.3835ZM153.204 25.6761C150.021 25.6761 148.461 22.8381 148.461 19.2457C148.461 15.6534 150.021 12.777 153.204 12.777C156.336 12.777 157.896 15.6534 157.896 19.2457C157.896 22.8381 156.336 25.6761 153.204 25.6761ZM181.001 9.36364H177.127V4.65909H172.499V9.36364H169.713V12.9432H172.499V23.8608C172.474 27.5554 175.159 29.3707 178.636 29.2685C179.953 29.2301 180.86 28.9744 181.359 28.8082L180.579 25.1903C180.323 25.2543 179.799 25.3693 179.224 25.3693C178.061 25.3693 177.127 24.9602 177.127 23.0938V12.9432H181.001V9.36364ZM195.202 29.3963C198.283 29.3963 200.124 27.9517 200.967 26.3026H201.121V29H205.57V15.858C205.57 10.6676 201.338 9.10795 197.592 9.10795C193.463 9.10795 190.293 10.9489 189.27 14.5284L193.591 15.142C194.051 13.7997 195.355 12.6491 197.618 12.6491C199.766 12.6491 200.942 13.7486 200.942 15.679V15.7557C200.942 17.0852 199.548 17.1491 196.084 17.5199C192.274 17.929 188.631 19.0668 188.631 23.4901C188.631 27.3509 191.456 29.3963 195.202 29.3963ZM196.404 25.9957C194.473 25.9957 193.092 25.1136 193.092 23.4134C193.092 21.6364 194.639 20.8949 196.71 20.6009C197.925 20.4347 200.354 20.1278 200.955 19.642V21.956C200.955 24.142 199.19 25.9957 196.404 25.9957Z" fill="white"/>
<path d="M72.7939 38.2227L72.8069 46.2226L74.1976 46.2204L74.1886 40.7126L74.2628 40.7125L76.4827 46.1932L77.5217 46.1915L79.7238 40.7153L79.798 40.7152L79.8069 46.2113L81.1975 46.209L81.1845 38.209L79.4111 38.2119L77.0455 44.0126L76.9518 44.0128L74.5674 38.2198L72.7939 38.2227ZM86.2496 46.318C87.648 46.3157 88.6079 45.6306 88.8562 44.5872L87.5356 44.4409C87.345 44.949 86.8767 45.2154 86.2673 45.2164C85.3533 45.2179 84.7468 44.6173 84.7335 43.59L88.9131 43.5832L88.9124 43.1496C88.909 41.0441 87.6419 40.1204 86.1653 40.1228C84.4466 40.1256 83.3275 41.3891 83.3305 43.2407C83.3336 45.1235 84.441 46.3209 86.2496 46.318ZM84.7358 42.6369C84.7775 41.8712 85.3429 41.2257 86.1866 41.2243C86.9991 41.223 87.547 41.8159 87.5561 42.6323L84.7358 42.6369ZM90.4858 41.3541L92.4272 41.3509L92.4351 46.1908L93.8023 46.1885L93.7944 41.3487L95.7358 41.3455L95.7339 40.1854L90.4839 40.1939L90.4858 41.3541ZM99.2293 46.3008C100.171 46.2993 100.733 45.857 100.989 45.3526L101.036 45.3526L101.038 46.1768L102.397 46.1746L102.391 42.159C102.388 40.573 101.094 40.0986 99.9497 40.1004C98.688 40.1025 97.7202 40.6665 97.4094 41.7608L98.7301 41.9462C98.87 41.5358 99.2679 41.1836 99.9593 41.1824C100.616 41.1814 100.975 41.5167 100.976 42.1066L100.976 42.13C100.977 42.5363 100.551 42.5565 99.493 42.6715C98.3291 42.7984 97.2164 43.1478 97.2186 44.4994C97.2205 45.6791 98.0848 46.3027 99.2293 46.3008ZM99.5948 45.2612C99.005 45.2621 98.5827 44.9933 98.5818 44.4737C98.5809 43.9308 99.0532 43.7034 99.6859 43.6126C100.057 43.5612 100.799 43.4662 100.982 43.3175L100.983 44.0245C100.985 44.6925 100.446 45.2598 99.5948 45.2612ZM104.285 46.1715L104.722 46.1708C106.011 46.1687 106.592 45.2615 106.683 43.2614L106.773 41.3276L108.496 41.3248L108.504 46.1647L109.871 46.1624L109.861 40.1624L105.486 40.1695L105.385 42.826C105.321 44.5097 105.103 45.0061 104.482 45.0071L104.275 45.0075L104.285 46.1715ZM111.761 46.1594L112.198 46.1587C113.487 46.1566 114.068 45.2494 114.158 43.2492L114.249 41.3155L115.971 41.3127L115.979 46.1525L117.347 46.1503L117.337 40.1503L112.962 40.1574L112.861 42.8138C112.797 44.4975 112.579 44.994 111.958 44.995L111.751 44.9953L111.761 46.1594ZM122.268 46.2595C124.026 46.2566 125.141 45.0165 125.138 43.1611C125.135 41.3017 124.015 40.0613 122.258 40.0642C120.5 40.067 119.385 41.311 119.388 43.1704C119.391 45.0259 120.51 46.2623 122.268 46.2595ZM122.274 45.1267C121.301 45.1282 120.823 44.2618 120.821 43.1642C120.819 42.0665 121.295 41.1868 122.267 41.1853C123.224 41.1837 123.702 42.0618 123.704 43.1595C123.706 44.2571 123.231 45.1251 122.274 45.1267ZM127.223 46.1342L128.637 46.132L128.633 43.8702L129.325 43.8691L130.973 46.1282L132.684 46.1254L130.433 43.0743L132.65 40.1254L130.947 40.1282L129.147 42.553L128.631 42.5538L128.627 40.132L127.213 40.1343L127.223 46.1342ZM136.736 46.236C138.494 46.2331 139.609 44.993 139.606 43.1376C139.603 41.2782 138.483 40.0378 136.726 40.0407C134.968 40.0435 133.853 41.2875 133.856 43.1469C133.859 45.0024 134.978 46.2388 136.736 46.236ZM136.742 45.1032C135.769 45.1047 135.291 44.2383 135.289 43.1407C135.287 42.043 135.763 41.1633 136.735 41.1618C137.692 41.1602 138.17 42.0383 138.172 43.136C138.174 44.2336 137.699 45.1016 136.742 45.1032ZM143.044 40.1085L141.681 40.1108L141.691 46.1107L143.054 46.1085L143.05 43.6828L145.374 43.679L145.378 46.1048L146.738 46.1025L146.728 40.1026L145.368 40.1048L145.372 42.5188L143.048 42.5226L143.044 40.1085ZM151.666 46.2117C153.173 46.2093 154.133 45.3132 154.232 44.0396L152.881 44.0418C152.761 44.6865 152.297 45.0584 151.675 45.0594C150.793 45.0608 150.221 44.3234 150.219 43.0969C150.217 41.886 150.798 41.1584 151.669 41.157C152.349 41.1559 152.767 41.5927 152.878 42.1707L154.229 42.1685C154.13 40.8679 153.113 40.0141 151.648 40.0164C149.89 40.0193 148.783 41.2906 148.786 43.1227C148.789 44.9391 149.873 46.2146 151.666 46.2117ZM155.844 41.2479L157.786 41.2448L157.793 46.0846L159.161 46.0824L159.153 41.2425L161.094 41.2394L161.092 40.0792L155.842 40.0877L155.844 41.2479ZM163.112 48.326L164.526 48.3237L164.521 45.1283L164.579 45.1283C164.803 45.5654 165.268 46.1779 166.3 46.1762C167.714 46.1739 168.77 45.0511 168.767 43.0746C168.764 41.0746 167.672 39.9904 166.286 39.9927C165.227 39.9944 164.787 40.6318 164.573 41.0658L164.491 41.0659L164.489 40.0737L163.098 40.076L163.112 48.326ZM164.49 43.0737C164.488 41.9096 164.987 41.1549 165.897 41.1534C166.838 41.1519 167.324 41.9519 167.326 43.0691C167.328 44.1941 166.837 45.0152 165.903 45.0167C165.001 45.0182 164.492 44.2378 164.49 43.0737ZM171.541 48.3123C172.643 48.3105 173.279 47.743 173.617 46.7854L176.016 40.0628L174.505 40.0574L173.125 44.5909L173.063 44.591L171.673 40.062L170.173 40.0645L172.358 46.1859L172.238 46.5103C171.977 47.1944 171.563 47.2419 170.946 47.0632L170.619 48.1653C170.811 48.2431 171.155 48.3129 171.541 48.3123ZM177.888 46.0519L179.302 46.0497L179.298 43.7879L179.989 43.7868L181.638 46.0459L183.348 46.0431L181.097 42.992L183.315 40.0431L181.612 40.0459L179.811 42.4707L179.296 42.4715L179.292 40.0497L177.878 40.052L177.888 46.0519ZM190.087 40.0321L188.735 40.0343L188.743 44.8742L186.392 44.878L186.384 40.0381L185.02 40.0404L185.03 46.0403L189.632 46.0329L189.635 47.9626L191.018 47.9603L191.013 44.9759L190.095 44.9774L190.087 40.0321ZM194.414 44.111L194.407 40.0251L193.044 40.0273L193.054 46.0273L194.511 46.0249L196.899 41.9312L196.905 46.0211L198.273 46.0188L198.263 40.0188L196.81 40.0212L194.414 44.111ZM201.965 44.0988L201.958 40.0128L200.595 40.0151L200.605 46.015L202.062 46.0127L204.45 41.919L204.456 46.0088L205.823 46.0066L205.814 40.0066L204.361 40.0089L201.965 44.0988Z" fill="white"/>
<path d="M60 1V46" stroke="white" stroke-width="2" stroke-linecap="round"/>
</svg>
