<svg width="218" height="58" viewBox="0 0 218 58" fill="none" xmlns="http://www.w3.org/2000/svg">
<path d="M3.57473 26.0385L25 10.4721L46.4253 26.0385L38.2415 51.2254H11.7585L3.57473 26.0385Z" stroke="white" stroke-width="4"/>
<path d="M26.14 41.84L30.04 31.85C30.42 30.87 30.72 30.07 30.94 29.45C31.18 28.83 31.36 28.32 31.48 27.92C31.6 27.52 31.68 27.2 31.72 26.96C31.76 26.72 31.78 26.49 31.78 26.27C31.78 25.79 31.6 25.48 31.24 25.34C30.88 25.18 30.16 25.1 29.08 25.1V23.9H37.6V25.1C35.94 25.1 34.79 25.91 34.15 27.53L26.26 47.3H24.04L16.87 29.78C16.47 28.84 16.11 28.07 15.79 27.47C15.47 26.87 15.13 26.4 14.77 26.06C14.41 25.7 14.01 25.46 13.57 25.34C13.15 25.2 12.65 25.13 12.07 25.13V23.9H23.41V25.13C22.89 25.15 22.45 25.18 22.09 25.22C21.75 25.26 21.48 25.33 21.28 25.43C21.08 25.51 20.94 25.63 20.86 25.79C20.78 25.93 20.74 26.11 20.74 26.33C20.74 26.61 20.79 26.94 20.89 27.32C20.99 27.7 21.14 28.16 21.34 28.7L26.14 41.84Z" fill="white"/>
<path d="M74.7614 7.90909H68.9801L79.2216 37H85.7273L95.983 7.90909H90.1875L82.6307 30.8068H82.3324L74.7614 7.90909ZM104.787 37H109.929V15.1818H104.787V37ZM107.373 12.0852C109.006 12.0852 110.341 10.8352 110.341 9.30114C110.341 7.75284 109.006 6.50284 107.373 6.50284C105.725 6.50284 104.39 7.75284 104.39 9.30114C104.39 10.8352 105.725 12.0852 107.373 12.0852ZM137.661 20.9489C136.951 17.2557 133.997 14.8977 128.883 14.8977C123.627 14.8977 120.048 17.483 120.062 21.517C120.048 24.6989 122.008 26.8011 126.198 27.6676L129.92 28.4489C131.923 28.8892 132.86 29.6989 132.86 30.9347C132.86 32.4261 131.241 33.5483 128.798 33.5483C126.44 33.5483 124.906 32.5256 124.465 30.5653L119.451 31.0483C120.09 35.054 123.457 37.4261 128.812 37.4261C134.266 37.4261 138.116 34.5994 138.13 30.4659C138.116 27.3551 136.113 25.4517 131.994 24.5568L128.272 23.7614C126.056 23.2642 125.176 22.4972 125.19 21.233C125.176 19.7557 126.809 18.733 128.954 18.733C131.326 18.733 132.576 20.0256 132.974 21.4602L137.661 20.9489ZM157.087 37.4261C163.479 37.4261 167.542 32.9233 167.542 26.1761C167.542 19.4148 163.479 14.8977 157.087 14.8977C150.695 14.8977 146.633 19.4148 146.633 26.1761C146.633 32.9233 150.695 37.4261 157.087 37.4261ZM157.116 33.3068C153.579 33.3068 151.846 30.1534 151.846 26.1619C151.846 22.1705 153.579 18.9744 157.116 18.9744C160.596 18.9744 162.329 22.1705 162.329 26.1619C162.329 30.1534 160.596 33.3068 157.116 33.3068ZM188.001 15.1818H183.697V9.95455H178.555V15.1818H175.458V19.1591H178.555V31.2898C178.527 35.3949 181.51 37.4119 185.373 37.2983C186.836 37.2557 187.845 36.9716 188.399 36.7869L187.532 32.767C187.248 32.8381 186.666 32.9659 186.027 32.9659C184.734 32.9659 183.697 32.5114 183.697 30.4375V19.1591H188.001V15.1818ZM203.78 37.4403C207.203 37.4403 209.249 35.8352 210.186 34.0028H210.357V37H215.3V22.3977C215.3 16.6307 210.598 14.8977 206.436 14.8977C201.848 14.8977 198.325 16.9432 197.189 20.9205L201.99 21.6023C202.501 20.1108 203.95 18.8324 206.464 18.8324C208.851 18.8324 210.158 20.054 210.158 22.1989V22.2841C210.158 23.7614 208.609 23.8324 204.76 24.2443C200.527 24.6989 196.479 25.9631 196.479 30.8778C196.479 35.1676 199.618 37.4403 203.78 37.4403ZM205.115 33.6619C202.97 33.6619 201.436 32.6818 201.436 30.7926C201.436 28.8182 203.155 27.9943 205.456 27.6676C206.805 27.483 209.504 27.142 210.172 26.6023V29.1733C210.172 31.6023 208.212 33.6619 205.115 33.6619Z" fill="white"/>
<path d="M69.8608 44.2727V53H71.3778V46.9915H71.4588L73.8707 52.9744H75.0043L77.4162 47.0043H77.4972V53H79.0142V44.2727H77.0795L74.4886 50.5966H74.3864L71.7955 44.2727H69.8608ZM84.5253 53.1278C86.0509 53.1278 87.0992 52.3821 87.3719 51.2443L85.9316 51.0824C85.7228 51.6364 85.2114 51.9261 84.5466 51.9261C83.5495 51.9261 82.889 51.2699 82.8762 50.1491H87.4359V49.6761C87.4359 47.3793 86.0552 46.3693 84.4444 46.3693C82.5694 46.3693 81.3464 47.7457 81.3464 49.7656C81.3464 51.8196 82.5523 53.1278 84.5253 53.1278ZM82.8805 49.1094C82.9273 48.2741 83.5452 47.571 84.4657 47.571C85.352 47.571 85.9486 48.2188 85.9572 49.1094H82.8805ZM89.1554 47.7202H91.2733V53H92.7648V47.7202H94.8827V46.4545H89.1554V47.7202ZM98.685 53.1321C99.712 53.1321 100.326 52.6506 100.607 52.1009H100.658V53H102.141V48.6193C102.141 46.8892 100.73 46.3693 99.4819 46.3693C98.1055 46.3693 97.0487 46.983 96.7078 48.1761L98.1481 48.3807C98.3015 47.9332 98.7362 47.5497 99.4904 47.5497C100.206 47.5497 100.598 47.9162 100.598 48.5597V48.5852C100.598 49.0284 100.134 49.0497 98.9791 49.1733C97.7092 49.3097 96.4947 49.6889 96.4947 51.1634C96.4947 52.4503 97.4365 53.1321 98.685 53.1321ZM99.0856 51.9986C98.4421 51.9986 97.9819 51.7045 97.9819 51.1378C97.9819 50.5455 98.4975 50.2983 99.1879 50.2003C99.5927 50.1449 100.402 50.0426 100.603 49.8807V50.652C100.603 51.3807 100.015 51.9986 99.0856 51.9986ZM104.2 53H104.678C106.084 53 106.719 52.0114 106.821 49.8295L106.923 47.7202H108.803V53H110.294V46.4545H105.521L105.406 49.3523C105.334 51.1889 105.095 51.7301 104.418 51.7301H104.192L104.2 53ZM112.356 53H112.833C114.239 53 114.874 52.0114 114.976 49.8295L115.079 47.7202H116.958V53H118.45V46.4545H113.677L113.562 49.3523C113.489 51.1889 113.251 51.7301 112.573 51.7301H112.347L112.356 53ZM123.818 53.1278C125.735 53.1278 126.954 51.777 126.954 49.7528C126.954 47.7244 125.735 46.3693 123.818 46.3693C121.9 46.3693 120.682 47.7244 120.682 49.7528C120.682 51.777 121.9 53.1278 123.818 53.1278ZM123.826 51.892C122.765 51.892 122.245 50.946 122.245 49.7486C122.245 48.5511 122.765 47.5923 123.826 47.5923C124.87 47.5923 125.39 48.5511 125.39 49.7486C125.39 50.946 124.87 51.892 123.826 51.892ZM129.224 53H130.766V50.5327H131.52L133.314 53H135.181L132.731 49.6676L135.155 46.4545H133.297L131.329 49.0966H130.766V46.4545H129.224V53ZM139.601 53.1278C141.519 53.1278 142.738 51.777 142.738 49.7528C142.738 47.7244 141.519 46.3693 139.601 46.3693C137.684 46.3693 136.465 47.7244 136.465 49.7528C136.465 51.777 137.684 53.1278 139.601 53.1278ZM139.61 51.892C138.549 51.892 138.029 50.946 138.029 49.7486C138.029 48.5511 138.549 47.5923 139.61 47.5923C140.654 47.5923 141.174 48.5511 141.174 49.7486C141.174 50.946 140.654 51.892 139.61 51.892ZM146.494 46.4545H145.007V53H146.494V50.3537H149.03V53H150.513V46.4545H149.03V49.0881H146.494V46.4545ZM155.888 53.1278C157.533 53.1278 158.582 52.152 158.692 50.7628H157.218C157.086 51.4659 156.579 51.8707 155.901 51.8707C154.938 51.8707 154.316 51.0653 154.316 49.7273C154.316 48.4062 154.951 47.6136 155.901 47.6136C156.643 47.6136 157.099 48.0909 157.218 48.7216H158.692C158.586 47.3026 157.478 46.3693 155.88 46.3693C153.962 46.3693 152.752 47.7543 152.752 49.7528C152.752 51.7344 153.932 53.1278 155.888 53.1278ZM160.456 47.7202H162.573V53H164.065V47.7202H166.183V46.4545H160.456V47.7202ZM168.371 55.4545H169.914V51.9688H169.978C170.221 52.446 170.728 53.1151 171.853 53.1151C173.395 53.1151 174.55 51.892 174.55 49.7358C174.55 47.554 173.361 46.3693 171.848 46.3693C170.694 46.3693 170.212 47.0639 169.978 47.5369H169.888V46.4545H168.371V55.4545ZM169.884 49.7273C169.884 48.4574 170.429 47.6349 171.422 47.6349C172.449 47.6349 172.978 48.5085 172.978 49.7273C172.978 50.9545 172.441 51.8494 171.422 51.8494C170.438 51.8494 169.884 50.9972 169.884 49.7273ZM177.567 55.4545C178.769 55.4545 179.464 54.8366 179.834 53.7926L182.464 46.4631L180.815 46.4545L179.302 51.3977H179.234L177.725 46.4545H176.089L178.462 53.1364L178.33 53.4901C178.045 54.2358 177.593 54.2869 176.92 54.0909L176.562 55.2926C176.77 55.3778 177.145 55.4545 177.567 55.4545ZM184.494 53H186.037V50.5327H186.791L188.585 53H190.452L188.001 49.6676L190.426 46.4545H188.568L186.599 49.0966H186.037V46.4545H184.494V53ZM197.813 46.4545H196.339V51.7344H193.774V46.4545H192.286V53H197.306V55.1051H198.815V51.8494H197.813V46.4545ZM202.527 50.9119V46.4545H201.039V53H202.629L205.241 48.5384V53H206.733V46.4545H205.147L202.527 50.9119ZM210.764 50.9119V46.4545H209.277V53H210.866L213.478 48.5384V53H214.97V46.4545H213.385L210.764 50.9119Z" fill="white"/>
</svg>
