<svg width="50" height="50" viewBox="0 0 50 50" fill="none" xmlns="http://www.w3.org/2000/svg">
<path d="M3.57473 18.0385L25 2.47214L46.4253 18.0385L38.2415 43.2254H11.7585L3.57473 18.0385Z" stroke="white" stroke-width="4"/>
<path d="M26.14 33.84L30.04 23.85C30.42 22.87 30.72 22.07 30.94 21.45C31.18 20.83 31.36 20.32 31.48 19.92C31.6 19.52 31.68 19.2 31.72 18.96C31.76 18.72 31.78 18.49 31.78 18.27C31.78 17.79 31.6 17.48 31.24 17.34C30.88 17.18 30.16 17.1 29.08 17.1V15.9H37.6V17.1C35.94 17.1 34.79 17.91 34.15 19.53L26.26 39.3H24.04L16.87 21.78C16.47 20.84 16.11 20.07 15.79 19.47C15.47 18.87 15.13 18.4 14.77 18.06C14.41 17.7 14.01 17.46 13.57 17.34C13.15 17.2 12.65 17.13 12.07 17.13V15.9H23.41V17.13C22.89 17.15 22.45 17.18 22.09 17.22C21.75 17.26 21.48 17.33 21.28 17.43C21.08 17.51 20.94 17.63 20.86 17.79C20.78 17.93 20.74 18.11 20.74 18.33C20.74 18.61 20.79 18.94 20.89 19.32C20.99 19.7 21.14 20.16 21.34 20.7L26.14 33.84Z" fill="white"/>
</svg>
